<?xml version="1.0" encoding="UTF-8" standalone="no"?>
<!-- Created with Inkscape (http://www.inkscape.org/) -->

<svg
   version="1.1"
   id="svg1"
   width="998.61157"
   height="1024"
   viewBox="0 0 356.64699 365.71429"
   sodipodi:docname="comfyai_button.svg"
   inkscape:export-filename="comfyai_button_1024.png"
   inkscape:export-xdpi="270.80991"
   inkscape:export-ydpi="270.80991"
   inkscape:version="1.4.2 (f4327f4, 2025-05-13)"
   xmlns:inkscape="http://www.inkscape.org/namespaces/inkscape"
   xmlns:sodipodi="http://sodipodi.sourceforge.net/DTD/sodipodi-0.dtd"
   xmlns="http://www.w3.org/2000/svg"
   xmlns:svg="http://www.w3.org/2000/svg">
  <defs
     id="defs1" />
  <sodipodi:namedview
     id="namedview1"
     pagecolor="#7c7c7c"
     bordercolor="#000000"
     borderopacity="0.25"
     inkscape:showpageshadow="2"
     inkscape:pageopacity="0.0"
     inkscape:pagecheckerboard="true"
     inkscape:deskcolor="#979797"
     showguides="true"
     showborder="true"
     inkscape:zoom="0.41637486"
     inkscape:cx="216.15138"
     inkscape:cy="620.83479"
     inkscape:window-width="1920"
     inkscape:window-height="1057"
     inkscape:window-x="1912"
     inkscape:window-y="-8"
     inkscape:window-maximized="1"
     inkscape:current-layer="g1" />
  <g
     inkscape:groupmode="layer"
     inkscape:label="Image"
     id="g1">
    <path
       style="fill:#aaaaaa;fill-opacity:1"
       d="m 196.20248,354.64951 c -1.26364,-0.50708 -3.93111,-2.16606 -5.92771,-3.68662 -1.9966,-1.52055 -4.90022,-4.76524 -6.45248,-7.21042 -2.82229,-4.44578 -2.82229,-4.44578 -2.80033,-161.5 0.021,-150.409472 0.0999,-157.22582 1.86417,-161.110031 1.01321,-2.230694 3.76665,-5.703061 6.11874,-7.71637 2.3521,-2.013309 6.48112,-4.3928035 9.1756,-5.2877655 3.59485,-1.194017 6.55231,-1.447527 11.10929,-0.952274 3.41563,0.371211 9.36024,1.585135 13.21024,2.697607 3.85,1.1124735 10.30101,3.1249215 14.33558,4.4721065 4.03457,1.347186 9.88457,3.648491 13,5.114012 3.11543,1.46552 9.25031,4.856572 13.63306,7.53567 4.38274,2.679098 9.78274,6.271521 12,7.983162 2.21725,1.71164 7.45737,5.964964 11.64473,9.451834 4.98306,4.14946 8.5871,8.12884 10.43184,11.51822 2.58677,4.75276 2.80221,5.95629 2.62063,14.64014 -0.19784,9.46167 -0.19784,9.46167 10.79538,20.60394 6.04628,6.12824 11.65585,12.728129 12.46571,14.666409 0.80987,1.93828 1.94511,7.29346 2.52278,11.9004 0.57766,4.60694 1.05029,11.45211 1.05029,15.2115 0,3.98062 0.3901,6.59416 0.93408,6.25796 0.51375,-0.31751 2.76225,0.15419 4.99668,1.04823 2.45111,0.98074 5.74974,3.63985 8.31592,6.70368 4.25332,5.07815 4.25332,5.07815 4.54811,31.68088 0.29479,26.60273 0.29479,26.60273 -2.73571,30.78621 -1.66677,2.30091 -5.34971,5.50804 -8.18431,7.12694 -2.8346,1.61891 -5.69706,2.73501 -6.36102,2.48022 -0.87384,-0.33532 -1.38896,2.52911 -1.86533,10.37253 -0.36197,5.95968 -1.57027,14.12737 -2.68512,18.15043 -1.11484,4.02307 -2.96693,9.15709 -4.11574,11.40894 -1.14881,2.25186 -6.0798,7.94354 -10.95775,12.6482 -8.86901,8.55391 -8.86901,8.55391 -8.22331,18.38379 0.6457,9.82987 0.6457,9.82987 -11.7604,22.05768 -6.82336,6.7253 -16.4561,15.22124 -21.4061,18.87988 -4.95,3.65863 -13.95,9.1694 -20,12.24614 -7.14511,3.63366 -15.35798,6.8016 -23.4356,9.03979 -8.65343,2.39774 -14.43209,3.42644 -19,3.38233 -3.61042,-0.0349 -7.59828,-0.47827 -8.86192,-0.98535 z M 225,322.10425 v -70.27772 l 17.10311,-17.10311 h 45.87851 l 34.4016,-34.4016 -6.63077,-6.41634 -32.58508,31.72735 -45.64035,-0.27743 -22.08581,21.01364 0.85774,71.17467 -9.06007,9.06008 6.63079,6.63079 z m 26.16505,-63.04524 h -9.28033 v 53.44307 h 9.28033 z m 24.52693,-7.72436 -8.43058,-0.15163 v 37.31114 l 8.43058,0.15163 z m 10.38144,-80.1364 c 12.52503,-30.97766 -15.85652,-67.84348 -51.36409,-62.69334 -46.45903,6.73866 -53.93332,66.50034 -15.67439,86.87144 14.33068,7.71612 52.51376,11.74534 67.03848,-24.1781 z m -68.95354,-41.91787 c 33.41494,-33.149145 82.28584,19.66938 50.21254,50.61561 -34.34053,31.79431 -83.93914,-17.15728 -50.21254,-50.61561 z m 31.81066,39.95379 c 14.30982,-7.39991 11.60217,-30.53592 -6.93054,-30.53592 -23.9775,0 -21.22722,38.6695 6.93054,30.53592 z M 325.8,184.89649 v -36.32586 h -25.10439 v 9.18986 l 16.80385,-0.21444 v 27.136 z m -13.73145,-56.70671 v -8.59116 h -21.76524 v 8.59116 z M 266.00477,63.020063 c 0,0 0.15202,-0.994282 1.31545,-2.655342 5.45605,-6.113242 0.74157,-12.691411 -5.22366,-12.857554 -5.70784,-0.158973 -12.28978,6.165148 -6.07584,12.689701 1.74023,1.827218 1.01004,2.670389 1.01004,2.670389 v 40.086723 l 8.97401,0.21444 z M 239.02807,99.77193 V 60.83883 L 228.94474,52.713616 V 21.92887 l -8.62539,-0.214436 v 33.955744 l 9.91525,7.684579 0.24483,36.312282 z M 129.5,354.11145 c -1.1,-0.26303 -4.025,-0.99131 -6.5,-1.61838 -2.475,-0.62708 -6.50519,-1.98618 -8.95597,-3.02024 -2.45079,-1.03405 -7.0582,-3.65635 -10.23869,-5.82733 -3.1805,-2.17099 -6.80031,-3.95212 -8.044031,-3.95807 -1.24372,-0.006 -4.41223,-0.66347 -7.041134,-1.46115 -2.628904,-0.79768 -7.849915,-3.06361 -11.602248,-5.0354 -3.752332,-1.9718 -9.37201,-5.85749 -12.488173,-8.63488 -3.116163,-2.7774 -7.648015,-7.8277 -10.070782,-11.2229 -2.422767,-3.39521 -5.000774,-8.08193 -5.728906,-10.41495 -0.728131,-2.33302 -2.065442,-4.47722 -2.971802,-4.76489 -0.90636,-0.28766 -5.187174,-4.22022 -9.512921,-8.73902 -4.911938,-5.13115 -9.232364,-10.84427 -11.506764,-15.21599 -2.002974,-3.85 -4.62337,-10.32382 -5.823102,-14.38627 -1.459719,-4.94279 -2.225802,-10.40121 -2.315758,-16.5 -0.07614,-5.16189 0.48089,-11.41159 1.284617,-14.41305 1.292698,-4.82749 1.262194,-5.53978 -0.342607,-8 -0.968908,-1.48537 -3.09201,-5.43823 -4.718004,-8.78412 -1.625994,-3.34589 -3.6240111,-9.57298 -4.4400391,-13.83797 -0.816027,-4.26499 -1.483686,-10.37536 -1.483686,-13.57859 0,-3.20323 0.631824,-9.12615 1.404054,-13.16203 0.772229,-4.03588 2.6487721,-10.48797 4.1700941,-14.33797 1.521323,-3.85 4.038605,-8.87978 5.593961,-11.17729 2.805859,-4.1447 2.818832,-4.23575 1.662925,-11.67084 -0.878166,-5.64858 -0.884657,-9.47588 -0.02636,-15.54507 0.715541,-5.05974 2.22361,-10.20085 4.058532,-13.83581 1.605944,-3.18136 4.989,-8.536799 7.517902,-11.900989 2.528903,-3.36418 6.118671,-7.27656 7.977262,-8.69418 2.33393,-1.78017 3.912477,-4.21671 5.103009,-7.87665 0.948063,-2.91455 3.144598,-8.21363 4.881187,-11.77574 1.981127,-4.06371 5.951569,-9.41857 10.657434,-14.37348 4.125,-4.3433 9.3,-9.106876 11.5,-10.585714 2.2,-1.478839 6.7,-3.831998 10,-5.229244 3.3,-1.397245 8.470051,-3.16922 11.489003,-3.937722 4.582559,-1.166532 6.564216,-2.471874 11.999997,-7.904547 4.21319,-4.210774 8.80493,-7.607915 13.011,-9.626014 3.575,-1.715307 8.975,-3.7015315 12,-4.4138305 3.025,-0.7123 8.88776,-1.278122 13.02836,-1.257383 5.66389,0.02837 8.56701,0.567584 11.7222,2.177243 2.30661,1.1767445 5.75077,3.5065485 7.6537,5.1773435 1.90293,1.670794 4.50295,5.155531 5.77781,7.74386 2.31793,4.706053 2.31793,4.706053 2.58651,155.206057 0.26422,148.05271 0.23605,150.60727 -1.73214,157.09646 -1.62201,5.3478 -2.92082,7.45709 -6.86138,11.14302 -2.67336,2.50062 -6.39389,5.34176 -8.26786,6.31367 -2.39418,1.2417 -6.23171,1.85201 -12.9072,2.0527 -5.225,0.15708 -10.4,0.0704 -11.5,-0.19265 z m 20.20509,-15.59722 c 2.43853,-1.61502 4.89743,-4.42916 6.17376,-7.06572 2.09827,-4.33445 2.12115,-5.12079 2.12115,-72.91402 0,-68.53231 0,-68.53231 -10.25,-69.1616 -5.6375,-0.34612 -12.5,-1.29952 -15.25,-2.11868 -2.75,-0.81915 -8.45013,-3.75565 -12.66695,-6.52554 -4.76926,-3.13278 -9.07574,-6.95534 -11.39446,-10.11407 -2.05013,-2.79285 -4.77683,-7.62905 -6.05932,-10.74713 -1.54596,-3.75864 -2.3398,-7.71436 -2.35553,-11.73772 -0.0131,-3.33767 -0.718057,-8.40652 -1.566666,-11.26409 -0.848609,-2.85758 -2.867335,-6.70402 -4.486057,-8.54764 -1.857368,-2.11542 -4.622417,-3.82221 -7.495095,-4.62651 -2.562356,-0.71742 -5.417177,-2.37441 -6.53146,-3.79099 -1.256887,-1.59788 -1.753718,-3.28052 -1.361004,-4.6094 0.340171,-1.15108 1.334062,-2.65537 2.208647,-3.34287 0.874585,-0.6875 3.441045,-1.25 5.703244,-1.25 2.809392,0 5.545391,0.90834 8.631918,2.86576 2.485355,1.57616 6.150573,4.85708 8.144913,7.29092 1.99435,2.43384 4.76959,6.88175 6.16719,9.88424 1.44054,3.09475 2.54532,7.27844 2.55086,9.65986 0.005,2.31043 0.51915,6.57593 1.14172,9.4789 0.62258,2.90297 2.14993,6.86262 3.39412,8.79922 1.24419,1.93661 3.99731,5.17825 6.11804,7.20365 2.12074,2.0254 6.15113,4.8278 8.95642,6.22755 2.8053,1.39975 8.2053,3.07685 12,3.72689 3.79471,0.65004 8.58697,0.86475 10.64947,0.47714 3.75,-0.70476 3.75,-0.70476 3.73355,-72.90944 -0.0165,-72.204694 -0.0165,-72.204694 -2.28109,-76.204694 -1.24555,-2.2 -3.59645,-4.638963 -5.22422,-5.419918 -1.62777,-0.780955 -4.98879,-1.612482 -7.46891,-1.847838 -2.48013,-0.235356 -7.40734,0.325586 -10.94935,1.246536 -3.54201,0.92095 -8.17479,2.559467 -10.29506,3.641149 -2.12027,1.081682 -5.62136,3.56246 -7.7802,5.512839 -2.15883,1.950379 -5.12853,6.005745 -6.59931,9.011924 -1.47079,3.006178 -2.99513,7.221033 -3.38743,9.366343 -0.39229,2.14531 -0.34406,6.23614 0.10719,9.09073 0.49669,3.14202 1.72303,6.16104 3.10764,7.65043 1.25796,1.35315 4.31219,3.83501 6.78719,5.51524 2.475,1.68023 6.8434,5.0259 9.70755,7.43482 3.50445,2.94745 6.20194,6.41046 8.24808,10.5888 1.6723,3.41492 3.31986,8.29021 3.66125,10.83398 0.36044,2.685739 0.11418,6.159849 -0.58733,8.285419 -0.66442,2.01322 -2.2896,4.36906 -3.61151,5.23521 -1.43261,0.93868 -3.3717,1.3318 -4.80045,0.97321 -1.31834,-0.33088 -2.64462,-1.24692 -2.94728,-2.03564 -0.30266,-0.78872 -0.10807,-3.03562 0.43242,-4.99312 0.67537,-2.446 0.62778,-4.89311 -0.15219,-7.824599 -0.62419,-2.34603 -2.26445,-5.75835 -3.64503,-7.58293 -1.38057,-1.82457 -6.70943,-6.41884 -11.84192,-10.20947 -6.1923,-4.57338 -10.168595,-8.33552 -11.819118,-11.18259 -1.368034,-2.35979 -3.033818,-7.11614 -3.701742,-10.56967 -0.667925,-3.45353 -0.949482,-8.51603 -0.625684,-11.25 0.380487,-3.21262 0.212765,-4.97085 -0.474183,-4.97085 -0.5846,0 -3.818663,1.4625 -7.186809,3.25 -3.368145,1.7875 -9.056135,6.01858 -12.639977,9.4024 -3.583842,3.38383 -8.027366,8.6612 -9.874497,11.7275 -1.847131,3.06629 -4.169177,8.62271 -5.160103,12.34759 -0.990925,3.72488 -2.123911,7.5825 -2.517747,8.57249 -0.393836,0.98998 -3.121485,3.3387 -6.061441,5.21937 -2.939956,1.88067 -6.758572,5.34568 -8.485813,7.700029 -1.72724,2.35434 -3.939989,6.11365 -4.917218,8.35402 -0.97723,2.24037 -2.358029,6.67068 -3.068443,9.84515 -1.046881,4.67795 -1.052199,6.93815 -0.02806,11.9266 0.694981,3.38517 2.435806,8.31645 3.868499,10.9584 1.432694,2.64196 4.264189,6.30263 6.292212,8.13482 2.028022,1.8322 5.666983,4.49143 8.086578,5.90941 2.419596,1.41798 7.31317,3.32089 10.87461,4.2287 3.56144,0.90781 7.712845,2.28604 9.225345,3.06272 2.013872,1.03415 2.75,2.16537 2.75,4.22597 0,2.04483 -0.696072,3.13095 -2.547053,3.97431 -1.400878,0.63829 -3.781334,1.16052 -5.2899,1.16052 -1.508567,0 -5.384306,-0.68801 -8.612755,-1.52892 -3.228448,-0.8409 -7.485493,-2.27502 -9.460099,-3.18693 -1.974605,-0.91192 -6.135892,-3.36228 -9.247303,-5.44527 -3.111411,-2.08298 -6.605213,-4.99256 -7.764004,-6.46572 -1.158792,-1.47317 -2.230867,-2.49729 -2.38239,-2.27582 -0.151523,0.22146 -1.244039,2.65266 -2.427814,5.40266 -1.183774,2.75 -2.733639,6.8 -3.444143,9 -0.73021,2.26102 -1.279089,8.56483 -1.262529,14.5 0.01972,7.06674 0.596303,12.33376 1.763385,16.10822 0.953749,3.08452 3.292972,8.197 5.198274,11.36107 1.905301,3.16406 4.887079,7.39036 6.626172,9.39178 1.739094,2.00141 5.660623,5.52533 8.714511,7.83094 3.053887,2.3056 8.046225,5.07808 11.094085,6.16107 3.04786,1.08298 7.926213,2.45907 10.840785,3.05799 2.914572,0.59891 8.112072,1.08893 11.55,1.08893 3.528384,0 6.773414,0.52263 7.450779,1.2 0.66,0.66 1.2,2.66757 1.2,4.46126 0,3.0641 -0.313251,3.35428 -5.181501,4.8 -2.849826,0.84631 -7.847371,1.53874 -11.105656,1.53874 -3.258285,0 -8.650147,-0.70638 -11.981915,-1.56972 -3.331769,-0.86335 -9.246724,-3.17242 -13.144345,-5.13128 -3.897621,-1.95885 -8.414266,-4.67431 -10.036991,-6.03434 -2.771501,-2.32286 -2.994631,-2.36038 -3.679714,-0.61873 -0.401119,1.01974 -0.760936,3.96942 -0.799593,6.55485 -0.03866,2.58543 0.428118,7.08543 1.037278,10 0.609159,2.91457 2.218961,7.54922 3.577337,10.29922 1.358376,2.75 4.276864,7.39868 6.485529,10.33039 2.380173,3.15937 6.756558,7.10341 10.745096,9.68358 3.701137,2.39426 7.20417,4.94558 7.784519,5.66961 0.580348,0.72403 1.380547,2.44142 1.778219,3.81642 0.397672,1.375 1.866359,4.88458 3.263748,7.79907 1.397389,2.91449 4.486145,7.46287 6.863903,10.10751 2.554777,2.84152 7.198096,6.31915 11.351371,8.50163 3.865496,2.03126 9.981434,4.31111 13.590973,5.06632 5.243522,1.09709 7.436262,2.17825 10.907852,5.37825 2.38979,2.20283 6.3023,5.01124 8.69448,6.24093 2.39217,1.22968 6.14941,2.82715 8.34941,3.54992 2.39288,0.78614 7.64666,1.22217 13.07624,1.08525 7.95941,-0.20072 9.57491,-0.55915 13.12885,-2.9129 z M 93.701585,306.67816 c -1.821654,-1.43292 -2.912642,-3.67959 -3.753362,-7.72932 -0.651876,-3.14007 -0.965541,-8.44607 -0.697034,-11.79111 0.268508,-3.34504 1.393358,-8.12816 2.499666,-10.62915 1.106309,-2.501 3.592895,-5.75348 5.525746,-7.22773 1.932852,-1.47426 6.148829,-3.59491 9.368839,-4.71255 3.22001,-1.11765 7.46267,-3.13131 9.42814,-4.47481 1.96547,-1.3435 4.65237,-4.34904 5.97088,-6.67898 1.73872,-3.07248 2.39122,-5.74722 2.37516,-9.73626 -0.0135,-3.35322 -0.8177,-7.25645 -2.06035,-10 -1.12102,-2.475 -3.79796,-6.26055 -5.94874,-8.41232 -2.15079,-2.15178 -6.16053,-4.9391 -8.91053,-6.19405 -2.75,-1.25495 -8.231479,-3.01092 -12.181065,-3.90215 -3.949585,-0.89124 -7.699263,-2.24482 -8.332618,-3.00797 -0.633355,-0.76314 -0.850869,-2.33491 -0.483366,-3.49281 0.367503,-1.1579 1.783976,-2.52949 3.147718,-3.04798 1.363741,-0.5185 4.155691,-0.94272 6.204332,-0.94272 2.048641,0 6.406849,0.68473 9.684899,1.52162 3.27806,0.83689 8.75371,2.88079 12.16813,4.542 3.5742,1.73895 7.76346,4.80567 9.87426,7.22838 2.01643,2.3144 5.05613,7.133 6.75489,10.708 2.7117,5.70672 3.08516,7.53737 3.06002,15 -0.0241,7.16774 -0.45721,9.39377 -2.763,14.20236 -1.59775,3.33202 -4.74348,7.50873 -7.56772,10.04796 -3.19465,2.87226 -6.82234,4.96117 -10.69991,6.16124 -3.22661,0.9986 -7.3397,2.51611 -9.1402,3.37224 -1.80049,0.85612 -4.16299,2.99562 -5.25,4.75443 -1.21131,1.95995 -1.97637,4.96135 -1.97637,7.75351 0,2.50563 0.52575,6.83337 1.16834,9.61721 1.03789,4.4964 0.96476,5.28649 -0.65499,7.07629 -1.002827,1.10812 -2.367894,2.01476 -3.033479,2.01476 -0.665584,0 -2.365813,-0.90904 -3.778286,-2.02009 z"
       id="path1"
       sodipodi:nodetypes="sssssssssssssssssssssssssssssssssssssscccccccccccccccccccccccsssssssssscccccccccccccssscccccccccccccssssssssssssssssssssssssssssssssssssssssssssssssssssssscsssssssssscsssssscsssssssssssssssssssssssssssssssssssssssssssssssssssssssssssssssssssssssssssssssssssssssssssssssssssssssssssssssssss" />
  </g>
</svg>
