<?xml version="1.0" encoding="UTF-8" standalone="no"?>
<!-- Created with Inkscape (http://www.inkscape.org/) -->

<svg
   version="1.1"
   id="svg1"
   width="64"
   height="64"
   viewBox="0 0 64 64"
   sodipodi:docname="advanced.svg"
   inkscape:version="1.4.2 (f4327f4, 2025-05-13)"
   xmlns:inkscape="http://www.inkscape.org/namespaces/inkscape"
   xmlns:sodipodi="http://sodipodi.sourceforge.net/DTD/sodipodi-0.dtd"
   xmlns="http://www.w3.org/2000/svg"
   xmlns:svg="http://www.w3.org/2000/svg">
  <defs
     id="defs1" />
  <sodipodi:namedview
     id="namedview1"
     pagecolor="#ffffff"
     bordercolor="#000000"
     borderopacity="0.25"
     inkscape:showpageshadow="2"
     inkscape:pageopacity="0.0"
     inkscape:pagecheckerboard="0"
     inkscape:deskcolor="#d1d1d1"
     inkscape:zoom="1.6010454"
     inkscape:cx="139.90858"
     inkscape:cy="166.45374"
     inkscape:window-width="1920"
     inkscape:window-height="1057"
     inkscape:window-x="1912"
     inkscape:window-y="-8"
     inkscape:window-maximized="1"
     inkscape:current-layer="g1" />
  <g
     inkscape:groupmode="layer"
     inkscape:label="Image"
     id="g1">
    <path
       style="fill:#aaaaaa;stroke-width:0.109047;fill-opacity:1"
       d="m 25.271478,61.006525 c -0.127533,-0.0515 -0.340535,-0.246231 -0.473339,-0.432737 -0.198283,-0.278464 -0.23188,-0.440861 -0.187877,-0.908134 0.07252,-0.770088 0.948203,-9.208868 0.998246,-9.619886 0.02191,-0.179926 0.244085,-2.265443 0.49373,-4.634476 0.249647,-2.369035 0.471029,-4.454549 0.491961,-4.634475 0.02093,-0.179926 0.129529,-1.198148 0.241324,-2.262713 l 0.203262,-1.935577 h -5.630791 c -4.930935,0 -5.674036,-0.02158 -5.978724,-0.173571 -0.44034,-0.219669 -0.711948,-0.630349 -0.705908,-1.067346 0.0046,-0.331904 1.495981,-2.849773 5.089855,-8.593032 0.250749,-0.400715 0.701261,-1.12805 1.001139,-1.616304 0.299878,-0.488253 0.720519,-1.16635 0.934757,-1.506882 0.21424,-0.340533 1.95074,-3.170837 3.858892,-6.289566 1.908152,-3.118729 3.681133,-6.013912 3.939957,-6.433743 0.258825,-0.419828 0.70598,-1.1461843 0.993676,-1.6141263 0.287697,-0.4679419 0.677359,-1.0907904 0.865915,-1.3841041 0.188556,-0.2933167 0.498565,-0.7937343 0.688907,-1.1120359 0.190343,-0.3183015 0.551315,-0.9071755 0.802159,-1.308607 0.250845,-0.4014347 0.666715,-1.0759756 0.924156,-1.498984 0.478073,-0.7855303 0.868574,-1.0970571 1.375169,-1.0970571 0.424264,0 0.813717,0.2231241 1.046293,0.5994415 0.206498,0.3341229 0.212605,0.6211793 0.214766,10.0953349 0.0012,5.36329 0.0025,9.78824 0.0029,9.833221 3.15e-4,0.04498 2.717466,0.08179 6.038022,0.08179 5.887868,0 6.044293,0.0054 6.316799,0.219799 0.153686,0.120889 0.333527,0.38371 0.399643,0.584047 0.140303,0.425123 0.04966,0.733648 -0.416155,1.416408 -0.35865,0.525691 -1.192875,1.823206 -1.495848,2.326575 -0.115378,0.191698 -0.483214,0.780548 -0.817406,1.308558 -0.334192,0.528009 -2.018373,3.21728 -3.742626,5.976155 -1.724252,2.758875 -3.296303,5.261493 -3.493447,5.56137 -0.724664,1.102295 -1.36167,2.098848 -2.03937,3.190462 -0.381942,0.615218 -1.136079,1.821678 -1.675859,2.681023 -3.061222,4.873541 -5.173234,8.226 -5.527117,8.773352 -0.221063,0.341917 -0.580521,0.916096 -0.798795,1.275948 -0.218275,0.359852 -0.635827,1.022311 -0.927895,1.472128 -0.292067,0.449817 -0.729211,1.144042 -0.971432,1.542722 -0.70973,1.168177 -1.271741,1.494821 -2.038913,1.185027 z m 4.384563,-9.439676 c 1.074654,-1.712364 2.133878,-3.393044 2.353831,-3.734841 0.219954,-0.341797 0.625906,-0.989482 0.902116,-1.439299 0.27621,-0.449817 0.685098,-1.100544 0.908641,-1.446064 0.223544,-0.345517 1.074918,-1.694968 1.891946,-2.998776 0.817026,-1.303811 2.36276,-3.760716 3.434964,-5.459789 2.781066,-4.407039 3.033565,-4.808277 3.408554,-5.416399 0.184916,-0.299878 0.545653,-0.873042 0.801639,-1.273698 0.255985,-0.400657 0.826221,-1.308469 1.267191,-2.01736 0.440969,-0.708892 0.894875,-1.421852 1.008679,-1.584356 0.113804,-0.162505 0.206918,-0.321985 0.206918,-0.354401 0,-0.03242 -2.442043,-0.05894 -5.426762,-0.05894 -5.077879,0 -5.451191,-0.01302 -5.806725,-0.202452 -0.208979,-0.111349 -0.440577,-0.3199 -0.514662,-0.463448 -0.10329,-0.200134 -0.135737,-2.180832 -0.139144,-8.494003 l -0.0045,-8.2330089 -0.475128,0.7633254 c -0.261321,0.4198282 -0.669511,1.0822865 -0.907088,1.4721285 -0.237576,0.389841 -0.717724,1.174974 -1.066994,1.744742 -0.626506,1.022027 -0.766645,1.249345 -2.138708,3.469195 -0.382339,0.618581 -0.744233,1.208431 -0.804208,1.310777 -0.05998,0.102344 -0.252012,0.430437 -0.426746,0.729095 -0.174735,0.298657 -0.350063,0.567548 -0.389617,0.597536 -0.03956,0.02999 -0.106707,0.128129 -0.149227,0.218093 -0.04252,0.08996 -0.235225,0.416651 -0.428232,0.725972 -0.874621,1.401706 -1.788657,2.883456 -3.200091,5.187686 -0.487482,0.795838 -1.144389,1.864081 -1.459792,2.373874 -0.315404,0.509792 -0.780333,1.270391 -1.033176,1.69022 -0.252844,0.419829 -0.868723,1.425782 -1.368621,2.235453 -0.499897,0.80967 -1.144995,1.864694 -1.43355,2.344499 l -0.524647,0.872371 5.388991,0.05452 5.388992,0.05452 0.279635,0.262794 c 0.153801,0.144538 0.305703,0.414429 0.337562,0.599757 0.04406,0.256279 -0.614226,7.291511 -0.878412,9.387816 -0.02267,0.17993 -0.24287,2.265443 -0.489324,4.634476 -0.246452,2.369036 -0.482994,4.589494 -0.525646,4.934352 -0.04265,0.344861 -0.04719,0.62702 -0.01009,0.62702 0.0371,0 0.946723,-1.401026 2.021376,-3.113394 z"
       id="path1" />
  </g>
</svg>
