<?xml version="1.0" encoding="UTF-8" standalone="no"?>
<!-- Created with Inkscape (http://www.inkscape.org/) -->

<svg
   version="1.1"
   id="svg1"
   width="64"
   height="64"
   viewBox="0 0 64 64"
   sodipodi:docname="appearance.svg"
   inkscape:version="1.4.2 (f4327f4, 2025-05-13)"
   xmlns:inkscape="http://www.inkscape.org/namespaces/inkscape"
   xmlns:sodipodi="http://sodipodi.sourceforge.net/DTD/sodipodi-0.dtd"
   xmlns="http://www.w3.org/2000/svg"
   xmlns:svg="http://www.w3.org/2000/svg">
  <defs
     id="defs1" />
  <sodipodi:namedview
     id="namedview1"
     pagecolor="#ffffff"
     bordercolor="#000000"
     borderopacity="0.25"
     inkscape:showpageshadow="2"
     inkscape:pageopacity="0.0"
     inkscape:pagecheckerboard="0"
     inkscape:deskcolor="#d1d1d1"
     inkscape:zoom="8.367838"
     inkscape:cx="28.800749"
     inkscape:cy="46.786278"
     inkscape:window-width="1920"
     inkscape:window-height="1057"
     inkscape:window-x="1912"
     inkscape:window-y="-8"
     inkscape:window-maximized="1"
     inkscape:current-layer="g1" />
  <g
     inkscape:groupmode="layer"
     inkscape:label="Image"
     id="g1">
    <path
       style="fill:#aaaaaa;stroke-width:0.113435;fill-opacity:1"
       d="M 7.0322678,62.777167 C 6.0893944,62.5272 5.4270187,62.135524 4.6612929,61.375163 3.8987687,60.617979 3.3145679,59.443142 3.165726,58.367553 3.1000824,57.893201 3.0701291,47.438703 3.0885847,31.445304 L 3.1187632,5.2985469 3.3744888,4.627094 C 4.0136071,2.9489743 5.1587441,1.8263242 6.7928927,1.2758188 7.4421717,1.0570934 7.748333,1.0447363 12.518338,1.0447363 c 4.698676,0 5.088565,0.01516 5.765215,0.2241555 0.924828,0.2856504 1.649769,0.7675832 2.38314,1.5842853 l 0.581282,0.6473338 0.547403,-0.3683746 C 22.749184,2.4902716 23.504729,2.2728429 24.78484,2.2718354 l 1.134349,-8.961e-4 4.407597,1.4816926 c 2.424177,0.81493 4.644666,1.6205446 4.93442,1.7902543 1.299983,0.7614041 2.267472,2.1833726 2.52391,3.7095211 l 0.138526,0.8244187 0.633718,-0.2128772 c 0.841761,-0.2827629 2.447964,-0.3039127 3.310229,-0.043585 0.349074,0.1053878 0.8798,0.3470662 1.179391,0.5370612 0.71178,0.451398 7.054038,5.750818 7.582395,6.335645 0.80344,0.889314 1.387452,2.563528 1.302403,3.733666 l -0.03599,0.495082 0.737328,0.186281 c 0.93251,0.235594 1.716083,0.693568 2.438852,1.425425 0.754133,0.763621 5.277859,8.024337 5.605553,8.997084 0.310629,0.922085 0.319873,2.348549 0.02144,3.307427 -0.420463,1.350947 -1.252395,2.31552 -2.856942,3.312444 -0.46291,0.287614 -3.036621,1.899629 -5.719358,3.58226 -10.589123,6.641569 -25.003188,15.670511 -29.209501,18.296774 -1.528536,0.954361 -3.003487,1.880173 -3.277671,2.05736 -0.274182,0.177188 -0.78464,0.437917 -1.134349,0.579397 -0.624184,0.252524 -0.728327,0.257687 -5.683691,0.281805 -4.4677709,0.02174 -5.1325871,0.0021 -5.7851826,-0.170904 z M 17.731006,60.7578 c 0.680235,-0.231779 1.533767,-1.000484 1.893937,-1.705711 l 0.282192,-0.552549 0.03186,-4.849344 0.03186,-4.849345 H 12.537368 5.1038787 v 4.475098 c 0,2.792306 0.046335,4.691169 0.1232305,5.049702 0.2306689,1.075576 1.2578039,2.187072 2.3002735,2.489203 0.1956091,0.05669 2.4521949,0.107675 5.0146363,0.113306 3.982103,0.0088 4.735987,-0.016 5.188992,-0.170361 z m -6.558362,-1.978167 c -3.0146359,-1.161591 -3.2453166,-5.389856 -0.380621,-6.976578 0.565249,-0.313085 0.690312,-0.336482 1.798558,-0.336482 1.105697,0 1.234187,0.02388 1.792675,0.333281 0.753953,0.417677 1.32501,1.043389 1.702176,1.865087 0.42454,0.92491 0.416703,2.181921 -0.01953,3.133075 -0.397307,0.866274 -1.234614,1.667533 -2.068639,1.979582 -0.811154,0.303491 -2.039961,0.304378 -2.824615,0.002 z M 13.611302,56.628 c 0.468076,-0.333297 0.839505,-1.142197 0.747636,-1.628198 -0.299176,-1.582693 -2.139164,-2.091264 -3.163173,-0.874298 -0.728522,0.865799 -0.402465,2.211008 0.651864,2.689387 0.484834,0.219982 1.315957,0.131912 1.763673,-0.186891 z M 27.67743,54.610681 c 2.339596,-1.46205 4.316671,-2.717415 4.393499,-2.7897 0.10911,-0.102662 -0.08388,-0.491013 -0.881773,-1.774292 -0.561804,-0.903572 -1.061403,-1.656571 -1.110221,-1.673331 -0.06767,-0.02323 -5.796289,6.727774 -6.981811,8.227844 -0.175856,0.222514 -0.190627,0.318827 -0.0846,0.551545 0.08108,0.177937 0.180598,0.25138 0.269777,0.199079 0.07772,-0.04558 2.055527,-1.279097 4.395122,-2.741145 z m -0.455763,-6.163424 c 1.570933,-1.879234 2.81383,-3.457734 2.761993,-3.507777 -0.743163,-0.717461 -2.709684,-2.24196 -2.744474,-2.127589 -0.02461,0.08089 -0.720906,2.175207 -1.547343,4.654053 -0.826436,2.478847 -1.462968,4.482493 -1.414514,4.452547 0.04846,-0.02994 1.373405,-1.592001 2.944338,-3.471234 z m -5.069682,3.189469 c 0.03263,-0.124779 0.01306,-0.22687 -0.04349,-0.22687 -0.05655,0 -0.102815,0.102092 -0.102815,0.22687 0,0.124778 0.01957,0.22687 0.04349,0.22687 0.02392,0 0.07018,-0.102093 0.102815,-0.22687 z M 38.567186,47.78737 c 2.401984,-1.506415 4.367246,-2.80508 4.367246,-2.88592 0,-0.196172 -4.175128,-6.883302 -4.275487,-6.847876 -0.04312,0.01522 -1.679634,1.943128 -3.636703,4.284237 l -3.558307,4.256563 1.115138,1.75549 c 0.613326,0.965519 1.174214,1.872316 1.246414,2.015102 0.0722,0.142786 0.185991,0.237501 0.252865,0.210477 0.06688,-0.02703 2.086848,-1.281657 4.488834,-2.788073 z M 24.541903,44.425208 c 0.927002,-2.778977 1.665637,-5.072504 1.641413,-5.09673 -0.06231,-0.0623 -3.964022,-1.417382 -4.081116,-1.417382 -0.05309,0 -0.09652,2.548033 -0.09652,5.662295 v 5.662294 l 0.311945,0.113934 c 0.171571,0.06266 0.362992,0.117158 0.425382,0.121103 0.06238,0.0039 0.87189,-2.266539 1.798893,-5.045513 z m -4.57805,-3.054345 v -5.388162 h -7.42999 -7.429989 v 5.388162 5.388159 h 7.429989 7.42999 z m 29.479102,-0.396759 c 2.440969,-1.528391 4.425324,-2.809344 4.409679,-2.846564 -0.123762,-0.294415 -6.50916,-10.410745 -6.559715,-10.3925 -0.03601,0.01299 -0.472012,0.508562 -0.968892,1.101259 -5.666281,6.758984 -6.183524,7.398031 -6.120624,7.561946 0.06151,0.160269 2.930127,4.796394 4.117057,6.653775 0.271924,0.425524 0.537149,0.757322 0.589387,0.737328 0.05224,-0.02 2.092138,-1.286853 4.533108,-2.815244 z M 34.884434,39.295226 c 1.846746,-2.202217 3.341523,-4.044573 3.321724,-4.094126 -0.0198,-0.04955 -1.487881,-1.299303 -3.262411,-2.777229 -2.221784,-1.850422 -3.251589,-2.641888 -3.307259,-2.54182 -0.04446,0.07993 -0.8781,2.515892 -1.852526,5.413263 -1.419657,4.221237 -1.742965,5.294621 -1.627161,5.402192 0.709157,0.658732 3.196455,2.661798 3.272559,2.635453 0.05354,-0.01854 1.60833,-1.835517 3.455074,-4.037733 z m -6.242723,-7.094488 c 0.914116,-2.735168 1.645374,-4.98512 1.625018,-4.999891 -0.02035,-0.01477 -1.823613,-0.63 -4.007236,-1.367171 -2.183623,-0.737171 -4.03403,-1.364005 -4.112017,-1.392962 -0.112239,-0.04168 -0.141794,1.126393 -0.141794,5.604854 v 5.657503 l 2.410493,0.805622 c 1.325772,0.443092 2.44492,0.773998 2.487,0.735349 0.04208,-0.03865 0.824418,-2.308137 1.738536,-5.043304 z m 29.331625,3.277113 c 0.79597,-0.800331 1.11837,-2.247081 0.739834,-3.319967 -0.206734,-0.585948 -4.636271,-7.688699 -5.098709,-8.175766 -0.420513,-0.442912 -1.309298,-0.895829 -1.95349,-0.995483 -0.401163,-0.06206 -0.484765,-0.03649 -0.6377,0.195041 -0.09681,0.146554 -0.64453,0.821351 -1.217164,1.499547 -0.572632,0.678195 -1.025829,1.295977 -1.007104,1.372849 0.01873,0.07687 1.565418,2.589084 3.437094,5.582693 l 3.403049,5.442926 0.94425,-0.576852 c 0.519337,-0.317269 1.144809,-0.778515 1.38994,-1.024988 z M 19.963853,28.552713 v -5.388161 h -7.42999 -7.429989 v 5.388161 5.38816 h 7.429989 7.42999 z m 20.374762,4.225451 c 4.821794,-5.757535 6.055583,-7.252663 6.055583,-7.338268 0,-0.05553 -2.332022,-2.048824 -5.18227,-4.429543 l -5.182269,-4.32858 -1.790744,5.311577 c -0.98491,2.921368 -1.804963,5.375661 -1.82234,5.453984 -0.0262,0.118047 6.989397,6.129803 7.174053,6.147543 0.03258,0.0031 0.369179,-0.364391 0.747987,-0.816713 z M 32.680738,20.152912 c 0.923182,-2.741762 1.642666,-5.017583 1.598857,-5.057379 -0.04381,-0.03979 -2.823363,-0.992813 -6.176784,-2.117815 l -6.097129,-2.045462 v 5.652956 5.652954 l 4.395605,1.474654 c 2.417582,0.81106 4.441805,1.463509 4.498272,1.449886 0.05647,-0.01362 0.857999,-2.26803 1.781179,-5.009794 z m 15.988731,2.671335 c 0.937344,-1.125199 1.171655,-1.658648 1.170887,-2.665722 -6.8e-4,-0.955378 -0.322349,-1.669029 -1.082834,-2.40272 -1.265093,-1.220524 -6.556456,-5.527103 -7.127593,-5.801068 -0.877786,-0.421056 -1.862686,-0.419903 -2.722438,0.0032 -0.839257,0.413008 -1.73508,1.352231 -1.970522,2.065987 -0.101239,0.306928 -0.160341,0.581793 -0.131324,0.61081 0.566427,0.566427 11.026902,9.177171 11.07987,9.12061 0.04138,-0.04418 0.394156,-0.46317 0.783954,-0.931089 z M 19.963853,15.79128 v -5.444878 h -7.42999 -7.429989 v 5.444878 5.444878 h 7.429989 7.42999 z M 35.391151,12.076285 C 35.808294,10.93223 35.924283,10.03667 35.742384,9.3643582 35.566617,8.7147058 34.970328,7.863577 34.42681,7.4865376 34.147622,7.2928653 32.358459,6.6225929 29.775977,5.7442039 24.852615,4.0696023 24.606542,4.027996 23.333244,4.654839 c -0.41051,0.2020929 -0.877146,0.5228481 -1.036971,0.7127889 -0.280051,0.332823 -0.290591,0.4002328 -0.290591,1.8586349 v 1.5132864 l 0.482099,0.181007 c 0.859367,0.3226553 12.275194,4.1303938 12.4104,4.1394788 0.07208,0.0049 0.293922,-0.437844 0.49297,-0.98375 z M 19.963853,7.1177612 c 0,-1.0317294 -0.04788,-1.4281916 -0.231805,-1.9198014 C 19.44003,4.4174707 18.770818,3.7202735 17.939649,3.3306045 L 17.298132,3.0298482 h -4.650834 c -5.3041192,0 -5.389303,0.012161 -6.3902931,0.9121355 -0.8466863,0.761244 -1.0764128,1.3879128 -1.1314418,3.0864462 l -0.045019,1.3895783 h 7.4416529 7.441655 z"
       id="path1" />
  </g>
</svg>
