<?xml version="1.0" encoding="UTF-8" standalone="no"?>
<!-- Created with Inkscape (http://www.inkscape.org/) -->

<svg
   version="1.1"
   id="svg1"
   width="64"
   height="64"
   viewBox="0 0 64 64"
   sodipodi:docname="chat.svg"
   inkscape:version="1.4.2 (f4327f4, 2025-05-13)"
   xmlns:inkscape="http://www.inkscape.org/namespaces/inkscape"
   xmlns:sodipodi="http://sodipodi.sourceforge.net/DTD/sodipodi-0.dtd"
   xmlns="http://www.w3.org/2000/svg"
   xmlns:svg="http://www.w3.org/2000/svg">
  <defs
     id="defs1" />
  <sodipodi:namedview
     id="namedview1"
     pagecolor="#ffffff"
     bordercolor="#000000"
     borderopacity="0.25"
     inkscape:showpageshadow="2"
     inkscape:pageopacity="0.0"
     inkscape:pagecheckerboard="0"
     inkscape:deskcolor="#d1d1d1"
     inkscape:zoom="4.183919"
     inkscape:cx="35.612544"
     inkscape:cy="38.122153"
     inkscape:window-width="1920"
     inkscape:window-height="1057"
     inkscape:window-x="1912"
     inkscape:window-y="-8"
     inkscape:window-maximized="1"
     inkscape:current-layer="g1" />
  <g
     inkscape:groupmode="layer"
     inkscape:label="Image"
     id="g1">
    <path
       style="fill:#aaaaaa;stroke-width:0.116431;fill-opacity:1"
       d="M 3.2838595,59.582129 C 2.6342698,59.351749 1.9136543,58.711592 1.6191932,58.103308 L 1.3760948,57.601142 V 35.068907 c 0,-22.123446 0.00424,-22.548942 0.2321445,-23.453199 C 1.8875783,10.507512 2.0918536,10.009704 2.6881208,8.9840906 3.7780134,7.1094154 5.7057007,5.5571214 7.8936157,4.7923017 9.5335713,4.219029 8.9270526,4.2331512 31.916936,4.2329806 c 14.567458,-1.08e-4 21.787883,0.039744 22.354756,0.1233802 3.957184,0.5838494 7.07416,3.356225 8.055188,7.1646412 l 0.297025,1.153069 -0.03687,15.252463 c -0.03663,15.149617 -0.03853,15.257567 -0.282499,16.009265 -0.59472,1.83239 -1.36091,3.064014 -2.686298,4.318128 -1.011343,0.956957 -1.801183,1.467021 -3.075402,1.986038 -1.898117,0.773144 -0.750445,0.728821 -20.603639,0.795693 -16.366795,0.05512 -18.02516,0.07779 -18.221455,0.24902 -0.118771,0.103606 -2.259312,1.566072 -4.756758,3.249933 -2.497445,1.68386 -5.1158712,3.455504 -5.8187239,3.936994 -1.8773244,1.286055 -2.6976878,1.522175 -3.8583976,1.110524 z m 1.876244,-3.083493 C 5.5443257,56.236349 7.0637507,55.205495 8.5366029,54.207847 10.009456,53.2102 12.587051,51.460148 14.264591,50.318845 l 3.050076,-2.075098 h 18.105532 c 18.44628,0 18.658716,-0.0048 19.863459,-0.440357 1.883811,-0.681206 3.571117,-2.405241 4.217529,-4.309334 l 0.265065,-0.780782 0.03173,-14.727959 C 59.833155,11.654061 59.861607,12.329506 59.072494,10.762543 58.326931,9.2820505 56.70447,7.875592 55.124971,7.3405599 53.865904,6.9140708 53.091826,6.9008936 31.357086,6.9359553 11.344053,6.9682417 10.007787,6.9828808 9.3516223,7.1771205 6.7561854,7.9454114 4.8499017,9.8974014 4.3298063,12.319341 4.1114693,13.336078 4.0979584,56.976207 4.3159829,56.975794 4.3960316,56.975677 4.7758854,56.760922 5.1601077,56.498636 Z M 16.156905,32.196565 c -2.099937,-0.548266 -3.598095,-2.452256 -3.602171,-4.577952 -0.0014,-0.7322 0.338952,-1.953603 0.692161,-2.483883 0.46553,-0.69891 1.341658,-1.467745 2.09011,-1.834151 0.734118,-0.359387 0.828691,-0.37589 2.167235,-0.378181 1.351277,-0.0023 1.426664,0.01091 2.182535,0.383029 0.990712,0.487727 1.818276,1.290718 2.314004,2.245296 0.369562,0.711634 0.387381,0.804413 0.389205,2.026518 0.0017,1.148097 -0.03041,1.349693 -0.310131,1.946502 -0.369472,0.788291 -1.223274,1.738065 -1.940055,2.158127 -0.670275,0.392807 -1.899906,0.728991 -2.635486,0.720547 -0.321571,-0.0037 -0.927904,-0.09633 -1.347407,-0.205852 z m 2.475067,-2.830189 c 0.597679,-0.300401 1.023794,-1.05416 1.023794,-1.811003 0,-1.483013 -1.700366,-2.453308 -3.106424,-1.772645 -1.249218,0.604734 -1.565727,2.13507 -0.650994,3.14757 0.699466,0.774226 1.732856,0.939077 2.733624,0.436078 z m 12.142956,2.878465 c -1.713456,-0.42526 -3.114872,-1.750882 -3.580509,-3.386859 -0.63488,-2.230606 0.456312,-4.510209 2.680132,-5.599039 0.615547,-0.301384 0.77629,-0.327302 2.064687,-0.332886 1.33833,-0.0058 1.430525,0.0097 2.189091,0.369038 2.647521,1.25401 3.615326,4.36302 2.112233,6.785413 -0.362959,0.584946 -1.324997,1.44724 -1.98635,1.780403 -1.055029,0.531483 -2.321622,0.671248 -3.479284,0.38393 z m 2.247869,-2.835943 c 0.780059,-0.356982 1.286537,-1.43655 1.063155,-2.266131 -0.427946,-1.589268 -2.501744,-2.132011 -3.645686,-0.954131 -1.669844,1.719384 0.352311,4.24089 2.582531,3.220262 z m 12.189577,2.835943 c -2.464125,-0.611567 -4.029967,-2.925273 -3.647496,-5.38958 0.239899,-1.545698 1.161651,-2.770281 2.632061,-3.496795 0.878622,-0.434118 0.901334,-0.438448 2.290386,-0.436726 l 1.402963,0.0017 0.847007,0.450814 c 2.409854,1.282629 3.335933,3.946897 2.187687,6.293827 -0.998424,2.040705 -3.438222,3.141198 -5.712608,2.576722 z m 1.970355,-2.688239 c 0.376909,-0.07774 0.963189,-0.58342 1.194097,-1.029949 0.102908,-0.198993 0.187099,-0.632905 0.187099,-0.964246 0,-2.174658 -3.036305,-2.795805 -4.062586,-0.831099 -0.09147,0.175108 -0.172136,0.577146 -0.179262,0.893418 -0.02148,0.953336 0.627295,1.751145 1.605878,1.97478 0.426648,0.0975 0.603273,0.09147 1.254774,-0.0429 z"
       id="path1" />
  </g>
</svg>
