<?xml version="1.0" encoding="UTF-8" standalone="no"?>
<!-- Created with Inkscape (http://www.inkscape.org/) -->

<svg
   version="1.1"
   id="svg1"
   width="64"
   height="64"
   viewBox="0 0 64 64"
   sodipodi:docname="general.svg"
   inkscape:version="1.4.2 (f4327f4, 2025-05-13)"
   xmlns:inkscape="http://www.inkscape.org/namespaces/inkscape"
   xmlns:sodipodi="http://sodipodi.sourceforge.net/DTD/sodipodi-0.dtd"
   xmlns="http://www.w3.org/2000/svg"
   xmlns:svg="http://www.w3.org/2000/svg">
  <defs
     id="defs1" />
  <sodipodi:namedview
     id="namedview1"
     pagecolor="#ffffff"
     bordercolor="#000000"
     borderopacity="0.25"
     inkscape:showpageshadow="2"
     inkscape:pageopacity="0.0"
     inkscape:pagecheckerboard="0"
     inkscape:deskcolor="#d1d1d1"
     inkscape:zoom="5.916955"
     inkscape:cx="48.758187"
     inkscape:cy="44.871053"
     inkscape:window-width="1920"
     inkscape:window-height="1057"
     inkscape:window-x="1912"
     inkscape:window-y="-8"
     inkscape:window-maximized="1"
     inkscape:current-layer="g1" />
  <g
     inkscape:groupmode="layer"
     inkscape:label="Image"
     id="g1">
    <path
       style="fill:#aaaaaa;fill-opacity:1;stroke-width:0.111138"
       d="m 16.63976,59.407121 c -0.39888,-0.196252 -0.282669,-0.396152 -0.22371,-1.139164 0.179265,-2.259164 0.429224,-4.342463 0.597005,-6.671303 -1.859982,-1.69196 -0.352878,-0.124709 -2.249271,-1.951263 -1.160466,-1.117726 -1.160466,-1.117726 -1.863114,-0.98971 -1.694849,0.191933 -3.3571582,0.583514 -5.0370296,0.879914 C 6.3305798,49.807307 6.141544,49.984618 5.8298499,49.499087 3.607266,46.036927 1.9259112,41.584374 1.8626211,41.388269 1.660532,40.762092 1.4459015,40.042548 1.9554614,39.704334 3.6292213,38.2576 5.3234419,36.82975 7.0234886,35.416351 7.5169947,35.019241 7.5169947,35.019241 7.3709376,34.201955 7.2906037,33.752447 7.2140634,32.733424 7.2008428,31.937458 L 7.1768064,30.49025 C 5.453556,29.344184 3.7633814,28.135215 2.0329767,27.153241 1.0803264,26.626634 1.028655,26.543651 1.028655,25.540299 c 0,-0.897026 3.0280164,-8.772553 3.1762298,-9.016085 0.1728899,-0.28408 0.3927038,-0.2681 0.9724566,-0.260816 2.1681469,0.03899 4.3239288,0.296276 6.4747966,0.552022 0.454358,0.05885 0.454358,0.05885 1.189159,-0.862154 0.40414,-0.506551 1.090632,-1.270986 1.525538,-1.698744 0.747175,-0.734894 0.786782,-0.798827 0.718935,-1.160491 -0.130021,-2.275136 -1.256845,-4.9162735 -1.108338,-7.0798681 0.04931,-0.1134876 0.08287,-0.2403857 0.07458,-0.2819872 -0.05291,-0.2655199 6.702634,-3.4105839 8.658169,-4.3182978 0.301593,-0.1249255 0.402736,-0.1130922 0.837141,0.097956 0.56451,0.2718434 3.347754,3.6737704 4.523269,5.1261465 0.523869,0.6482011 0.545657,0.6614932 1.000242,0.6102109 1.443011,-0.162787 3.047483,-0.2752327 3.545541,-0.2484803 0.565324,0.030361 0.573458,0.026077 0.994782,-0.5250748 1.157021,-1.8157823 2.300373,-3.6382335 3.578203,-5.378303 0.265888,-0.24799567 0.347317,-0.26205282 1.205734,-0.2081386 2.161958,0.1357872 4.853212,1.910149 8.353043,2.8635614 0.169979,0 0.385142,0.1346102 0.574087,0.3591586 0.291907,0.3469109 0.299551,0.3895465 0.224207,1.250302 -0.215464,1.9355958 -0.410963,4.2207126 -0.500846,6.0546204 -0.02386,0.48685 -0.08115,0.509746 0.325112,0.90401 0.640229,0.621321 0.429172,0.243966 1.835874,1.650362 1.022582,1.022358 1.027122,1.045188 1.734003,0.89275 1.972148,-0.425287 4.704608,-0.902769 6.149988,-1.097145 0.636225,-0.08556 0.755834,0.27622 0.943017,0.160534 1.622393,1.90999 3.913466,8.007288 4.054483,8.376397 0.177469,0.464525 0.238594,1.289014 -0.229748,1.54925 -1.737392,1.34345 -3.331663,2.863147 -5.031785,4.248703 -0.493506,0.397111 -0.493506,0.397111 -0.355104,1.171562 0.178243,1.238659 0.173976,2.494378 0.199803,3.743081 l 0.713385,0.538166 c 0.434947,0.328116 4.640646,2.999252 5.07555,3.365969 0.358084,0.301939 0.612432,0.345598 0.361199,1.302654 -0.682553,2.600146 -2.144272,7.347555 -3.223,8.852608 -0.246636,0.344109 -0.466888,0.257719 -1.166949,0.195357 -1.805654,-0.02634 -3.580744,-0.35447 -5.374335,-0.506125 -1.177502,-0.09425 -1.177502,-0.09425 -1.569137,0.358933 -0.532223,0.688712 -1.102913,1.339016 -1.703533,1.969682 -0.978484,1.021544 -0.978484,1.021544 -0.86016,1.596096 0.667348,4.742548 0.945873,4.325925 1.063731,5.991427 0.06496,0.917991 0.06496,0.917991 -0.308051,1.3245 -0.791092,0.862127 -6.941594,3.155173 -8.277866,3.98344 -0.155418,0.122248 -0.352844,0.222276 -0.438725,0.222276 -0.221099,0 -1.036395,-0.429569 -1.036395,-0.546063 0,-0.02135 -3.169045,-3.794052 -3.544328,-4.232869 -1.199144,-1.402153 -0.997201,-1.280681 -1.869824,-1.124735 -0.427607,0.07642 -1.441823,0.150261 -2.253814,0.164098 l -1.476345,0.02516 c -1.47961,1.606864 -2.51902,4.17078 -3.960189,5.717541 -0.434771,0.45704 -0.472037,0.667175 -1.228592,0.424632 -2.821576,-0.904568 -6.205508,-1.878644 -8.95409,-3.230969 z m 9.197777,-0.491755 c 0.97371,-1.463082 2.027233,-2.876191 2.989629,-4.347345 0.248063,-0.382902 0.55894,-0.755637 0.690838,-0.828298 0.158003,-0.08704 0.961075,-0.138173 2.354036,-0.149876 1.162822,-0.0098 2.550352,-0.08265 3.083402,-0.161953 1.491028,-0.221828 1.574632,-0.178465 3.054537,1.58426 3.302306,3.933398 3.155573,3.777464 3.491399,3.710299 0.348484,-0.0697 4.066635,-1.92315 5.307038,-2.455122 0.18223,-0.05784 0.198372,-0.119354 0.111141,-0.423524 -0.01405,-0.446016 -0.526452,-3.34983 -0.995813,-5.216084 -0.323506,-1.286312 -0.25291,-1.664428 0.420847,-2.254071 1.048571,-0.917661 2.68338,-2.615471 3.242768,-3.367733 0.780065,-1.049028 1.164555,-1.191003 2.73397,-1.009525 1.633402,0.09674 3.255535,0.410931 4.884156,0.524779 0.556912,0.01122 0.651006,-0.323552 0.836948,-0.762248 0.655088,-1.545557 1.091744,-2.792992 1.451162,-4.394751 0.15713,-0.700249 0.282841,-0.99862 -0.08972,-1.185683 -1.607352,-1.138008 -3.337223,-2.20772 -4.931557,-3.35734 -0.652424,-0.478736 -0.679722,-0.617264 -0.662155,-3.360265 0.0077,-1.1921 -0.07744,-2.128301 -0.08847,-2.194536 -0.07572,-0.454542 -0.26741,-1.546035 -0.106104,-1.920197 0.08709,-0.202016 0.673642,-0.884791 1.537262,-1.515183 1.133182,-0.82716 2.177139,-1.784075 3.216701,-2.725256 0.65287,-0.600214 0.652786,-0.599429 0.173333,-1.627448 -0.416766,-1.048621 -0.96407,-2.033602 -1.435186,-3.056294 -0.748128,-1.650984 -0.585215,-1.506228 -1.644109,-1.460865 -1.256186,0.05381 -4.733259,0.896831 -5.67341,0.948523 -0.526383,0.02895 -0.994577,-0.300659 -1.462807,-0.806916 -1.438223,-1.55503 -2.834885,-2.357579 -4.139051,-3.942092 -0.226962,-0.27575 -0.06569,-2.209058 0.06738,-2.559082 0.01895,-1.3355775 0.428709,-2.8628669 0.4109,-4.1824678 -0.0163,-0.611259 -0.0163,-0.611259 -0.527928,-0.7375642 C 42.38834,5.0420799 40.586897,4.5146244 38.84494,3.8478164 38.408907,3.4117859 35.999528,7.9974986 34.745909,9.3849828 34.356613,9.7986486 34.38917,9.7947046 31.69101,9.7550528 30.8194,9.7422504 29.836308,9.8056121 29.089163,9.9227771 27.405164,10.186845 27.320517,10.152533 26.144722,8.729238 24.130686,6.2912585 25.692275,8.2196446 23.437901,5.5458484 22.640342,4.5999096 22.473759,4.5163662 21.939744,4.7945177 18.351563,6.6634848 17.996178,6.441975 17.097243,7.0559272 16.88402,7.2167606 16.857234,7.303145 16.933558,7.5838315 c 0.157638,1.673423 1.145149,5.3016615 1.15036,6.2605815 0.0048,0.888924 0.04282,0.833386 -1.500302,2.19375 -0.621013,0.547467 -1.915021,1.957199 -2.251026,2.452338 -0.694705,1.023721 -1.204796,1.21794 -2.698067,1.027303 -1.6360615,-0.150518 -3.2675324,-0.331661 -4.8972946,-0.505937 -0.5018774,-0.04626 -0.5923767,-0.0217 -0.7501817,0.203597 -0.2585347,0.369109 -1.0181589,3.484492 -1.6306165,4.937417 -0.281889,0.589944 -0.2707596,0.884444 0.034148,1.102448 1.7185196,1.228695 3.6277034,2.276315 5.2592049,3.670214 0.3554109,0.334448 0.3554109,0.334448 0.4231739,1.833776 0.08535,1.366773 -0.0384,2.740981 0.202224,4.095222 0.260618,1.353202 0.250342,1.370723 -1.7447137,2.974394 -0.9632335,0.911782 -2.0323942,1.699762 -3.0322791,2.571112 -0.674798,0.595084 -0.6836551,0.713214 -0.1289256,1.719407 0.607672,1.413962 1.2605937,2.808062 1.9308394,4.198146 0.1087695,0.232163 0.2023508,0.275422 0.5691335,0.263101 2.6626405,-0.08944 4.2479715,-0.922844 6.1818465,-0.979904 0.748846,-0.0066 0.987085,0.141455 1.841677,1.144839 1.026498,1.205224 2.53151,2.464777 2.894546,2.738114 0.875497,0.659178 0.94062,0.802538 0.931797,2.051297 -0.0075,1.059287 -0.206329,1.506826 -0.559844,5.466536 -0.01343,0.434202 0.02706,0.543018 0.258415,0.694613 1.718038,0.638 3.456315,1.251907 5.229839,1.738983 0.06128,0.01638 0.232881,0.08781 0.443399,0.0752 0.329707,-0.01975 0.433195,-0.102215 0.746626,-0.595008 z m -4.796616,-38.24514 c 9.478703,-8.014573 19.132493,-3.85944 23.174172,1.608865 7.280709,7.889385 1.301194,24.069307 -10.122893,24.88811 C 20.807604,49.04096 10.003714,32.667562 21.040921,20.670226 Z M 42.538405,38.889221 C 52.35987,24.630733 28.797773,9.6874181 20.224757,26.479474 14.496891,37.6987 31.312153,53.445293 42.538405,38.889221 Z"
       id="path1"
       sodipodi:nodetypes="sscssssssssscssssssssssssssssssssssssssssssscssssssssssssssssscssssssssssssssssssssssssssssssssssssssssssssssssssssssssssssssssssssssssssss" />
  </g>
</svg>
