<?xml version="1.0" encoding="UTF-8" standalone="no"?>
<!-- Created with Inkscape (http://www.inkscape.org/) -->

<svg
   version="1.1"
   id="svg1"
   width="64"
   height="64"
   viewBox="0 0 64 64"
   sodipodi:docname="mode-plan.svg"
   inkscape:version="1.4.2 (f4327f4, 2025-05-13)"
   xmlns:inkscape="http://www.inkscape.org/namespaces/inkscape"
   xmlns:sodipodi="http://sodipodi.sourceforge.net/DTD/sodipodi-0.dtd"
   xmlns="http://www.w3.org/2000/svg"
   xmlns:svg="http://www.w3.org/2000/svg">
  <defs
     id="defs1" />
  <sodipodi:namedview
     id="namedview1"
     pagecolor="#ffffff"
     bordercolor="#000000"
     borderopacity="0.25"
     inkscape:showpageshadow="2"
     inkscape:pageopacity="0.0"
     inkscape:pagecheckerboard="0"
     inkscape:deskcolor="#d1d1d1"
     showguides="true"
     inkscape:zoom="8"
     inkscape:cx="30.875"
     inkscape:cy="23.8125"
     inkscape:window-width="1920"
     inkscape:window-height="1057"
     inkscape:window-x="1912"
     inkscape:window-y="-8"
     inkscape:window-maximized="1"
     inkscape:current-layer="g1">
    <sodipodi:guide
       position="35.841475,41.112942"
       orientation="1,0"
       id="guide1"
       inkscape:locked="false" />
    <sodipodi:guide
       position="34.112378,41.228952"
       orientation="1,0"
       id="guide2"
       inkscape:locked="false" />
    <sodipodi:guide
       position="30.855469,41.824219"
       orientation="1,0"
       id="guide3"
       inkscape:locked="false" />
    <sodipodi:guide
       position="29.128906,42.070312"
       orientation="1,0"
       id="guide4"
       inkscape:locked="false" />
  </sodipodi:namedview>
  <g
     inkscape:groupmode="layer"
     inkscape:label="Image"
     id="g1">
    <path
       style="fill:#aaaaaa;fill-opacity:1;stroke-width:0.10841"
       d="m 29.126282,61.605979 v -8.24414 l 0.0625,-6.86914 -10.958393,-1.464162 C 17.942712,44.9901 18.068518,43.5712 18.069106,40.867964 18.007256,37.491102 17.931995,37.0024 18.716895,36.890234 L 29.128906,35.411607 V 32.75959 c 0,0 -5.211573,0.870165 -5.642961,0.574217 -0.30297,-0.207852 -2.882908,-2.364943 -3.156413,-2.639085 -0.09795,-0.09819 -1.028324,-0.891557 -2.067487,-1.763051 -1.039165,-0.871493 -1.946913,-1.710783 -2.017218,-1.865087 -0.163001,-0.357748 -0.163729,-0.940231 -0.0016,-1.296021 0.06942,-0.15235 0.7646,-0.799453 1.544854,-1.438008 0.780254,-0.638554 1.467428,-1.21812 1.527054,-1.287919 0.388115,-0.454344 4.442058,-3.614396 4.713209,-3.673951 1.822474,0.375211 5.100562,0.8098 5.100562,0.8098 V 18.21022 l -10.26733,-1.273202 c -0.780827,-0.354534 -0.793167,-0.418718 -0.793167,-4.125771 0,-3.7070517 -0.188055,-4.0151425 0.793168,-4.1257433 L 29.128906,7.5281984 29.1263,5.4344595 V 2.3940327 c 0.0016,-0.3338955 0.202826,-0.5289136 0.532195,-0.532198 l 5.71089,0.00238 c 0.271891,-0.00749 0.465837,0.1386703 0.478382,0.4470013 l -0.0063,3.9998854 c 0,0 2.733389,-0.5921763 3.758923,-0.6389708 0.649612,-0.029642 0.472115,-0.1501145 3.5703,2.4233201 1.292111,1.0732652 2.504572,2.0733538 2.694356,2.2224188 0.189783,0.149065 0.537188,0.441773 0.772007,0.650464 1.20515,1.071027 1.332349,1.285505 1.195377,2.015607 -0.0919,0.48988 -0.685197,1.057003 -4.016466,3.839271 -1.371403,1.145384 -2.628803,2.332018 -2.910063,2.463936 -1.216347,0.570495 -2.188946,0.115089 -5.064434,-0.295655 l 0.0063,2.189052 9.277334,1.267968 c 0.845515,0.11556 0.804916,0.496875 0.804448,4.147362 -5.38e-4,4.596082 -0.386291,3.64127 -1.25403,3.971825 0,0 -7.443045,1.142477 -8.834044,1.160699 v 2.660311 c 0,0 4.109531,-0.621918 4.566239,-0.463711 0.502653,0.174123 4.263482,3.424874 5.377279,4.395574 0.169153,0.147419 0.616092,0.522268 0.993208,0.832995 1.075337,0.886044 1.306573,1.437194 0.933139,2.224149 -0.108455,0.228558 -0.960326,1.019209 -2.353734,2.184597 -1.201072,1.004521 -3.383218,2.705509 -4.110626,3.418654 -0.921374,0.903308 -1.413135,0.727966 -2.112321,0.662272 l -3.293204,-0.315096 0.03273,6.076706 -0.02775,8.232955 c -0.0061,0.28246 -0.138419,0.500175 -0.360034,0.500182 l -5.827865,1.8e-4 c -0.40463,0.01013 -0.534524,-0.245415 -0.532254,-0.532186 z m 4.960518,-8.818224 0.02558,-5.647101 -3.256909,-0.4375 0.03175,6.084601 -0.02783,7.615851 h 3.255248 z m 8.482406,-9.139058 c 1.281954,-1.082553 2.568128,-2.183516 2.858157,-2.446587 L 45.95469,40.723799 44.195905,39.26189 c -3.560465,-2.959477 -4.172219,-3.448125 -4.253711,-3.397756 -0.11762,0.0041 -20.193445,2.531948 -20.193445,2.531948 l 0.03098,2.493538 0.03099,2.493509 20.195966,2.265568 z m -8.526609,-11.66926 -3.187128,0.467667 v 2.683266 l 3.256909,-0.40625 -0.06979,-2.744682 z m 10.15277,-2.798109 v -2.601856 -2.601857 l -20.229803,-2.49349 c -0.06556,-0.0081 -1.739388,1.349062 -1.940176,1.564205 -0.12126,0.129927 -1.449919,1.23898 -2.927089,2.443284 -0.536634,0.437506 -0.975696,0.855359 -0.975696,0.928564 0,0.0732 0.975696,0.953273 2.168214,1.955704 1.192517,1.002431 2.484636,2.105974 2.871378,2.452314 0.386739,0.346342 0.742377,0.635028 0.789639,0.629713 z m -10.082989,-10.377337 -3.256909,-0.4375 v 2.126552 l 3.257701,0.4375 z m 7.847598,-2.685193 c 3.081352,-2.608246 3.915755,-3.339347 3.915755,-3.430958 0,-0.04809 -0.398591,-0.41806 -0.885761,-0.822163 C 41.76977,9.1945592 39.958323,7.7093947 39.907193,7.7160118 L 19.803001,10.317874 v 2.547651 2.547651 l 20.232741,2.276652 c 0.03731,0.0042 0.903517,-0.706947 1.924291,-1.570995 z m -7.846591,-12.3868789 -3.257916,0.01509 v 3.4336836 l 3.256909,-0.4741116 c 0,0 0.02101,-1.7684033 10e-4,-2.9746617 z"
       id="path1"
       sodipodi:nodetypes="cccscsccscsssscscccsscccccccssscsssccsccccssssssccccsccccccccccscsccccccccccccccsssssssccccccccsscccsccccccccc" />
  </g>
</svg>
