<?xml version="1.0" encoding="UTF-8" standalone="no"?>
<!-- Created with Inkscape (http://www.inkscape.org/) -->

<svg
   version="1.1"
   id="svg1"
   width="64"
   height="64"
   viewBox="0 0 64 64"
   sodipodi:docname="mode-chat.svg"
   inkscape:version="1.4.2 (f4327f4, 2025-05-13)"
   xmlns:inkscape="http://www.inkscape.org/namespaces/inkscape"
   xmlns:sodipodi="http://sodipodi.sourceforge.net/DTD/sodipodi-0.dtd"
   xmlns="http://www.w3.org/2000/svg"
   xmlns:svg="http://www.w3.org/2000/svg">
  <defs
     id="defs1" />
  <sodipodi:namedview
     id="namedview1"
     pagecolor="#ffffff"
     bordercolor="#000000"
     borderopacity="0.25"
     inkscape:showpageshadow="2"
     inkscape:pageopacity="0.0"
     inkscape:pagecheckerboard="0"
     inkscape:deskcolor="#d1d1d1"
     inkscape:zoom="8.367838"
     inkscape:cx="32.087141"
     inkscape:cy="20.973159"
     inkscape:window-width="1920"
     inkscape:window-height="1057"
     inkscape:window-x="1912"
     inkscape:window-y="-8"
     inkscape:window-maximized="1"
     inkscape:current-layer="g1" />
  <g
     inkscape:groupmode="layer"
     inkscape:label="Image"
     id="g1">
    <path
       style="fill:#aaaaaa;stroke-width:0.112407;fill-opacity:1"
       d="m 59.190189,59.386286 c -0.14668,-0.103726 -1.97881,-1.310459 -4.04666,-2.721373 l -3.759728,-2.5653 -11.577942,-0.0587 c -12.843155,-0.06512 -11.893668,-0.0079 -13.488863,-0.812644 -0.898975,-0.453506 -2.166245,-1.727177 -2.626954,-2.640227 -0.681551,-1.350725 -0.685571,-1.404635 -0.687398,-9.218544 l -0.0016,-7.109755 -5.14263,0.0022 -5.14263,0.0022 -4.0466346,2.75612 -4.046659,2.756117 C 4.0135966,40.126663 2.166164,40.505738 1.8122231,38.75275 L 1.7828759,24.062097 C 1.7507488,7.9791497 1.7155327,8.9209252 2.3996689,7.5678338 2.8184204,6.7396239 4.2364013,5.3743519 5.1333342,4.9357834 6.6144171,4.2115866 5.7173403,4.2498186 21.263157,4.2483547 c 15.616087,-0.00147 14.709366,-0.040831 16.234475,0.7047248 0.925184,0.4522804 2.171485,1.6745398 2.670626,2.6191094 0.710852,1.3452126 0.70547,1.2751929 0.70547,9.1756471 v 7.170445 l 7.727995,0.0019 c 8.544926,0.0022 8.60564,0.0065 10.093038,0.712809 0.953513,0.45282 2.084053,1.470463 2.61691,2.355575 0.205292,0.341007 0.496145,0.983233 0.646342,1.427175 l 0.273082,0.807158 v 14.481015 14.481023 c -0.05958,1.958398 -2.304647,1.721917 -3.040906,1.201287 z m 0.622419,-30.124167 c -0.22786,-0.903399 -0.864959,-1.81662 -1.62016,-2.322347 -1.191682,-0.798021 -0.887187,-0.773348 -9.544401,-0.773348 h -7.774319 v 1.381473 c 0,1.573533 -0.161629,2.353754 -0.701579,3.386678 -0.484843,0.927505 -1.737321,2.156523 -2.670638,2.620609 -1.383712,0.688044 -1.551572,0.704559 -7.161473,0.704559 h -5.090911 v 6.889426 c 0,7.699978 0.0028,7.732335 0.761518,8.841517 0.494249,0.722539 1.236255,1.283968 2.096569,1.586343 0.599274,0.210628 1.025762,0.218236 12.234349,0.218236 h 11.613428 l 3.985879,2.704053 3.985877,2.704053 0.02855,-13.631156 c 0.02492,-11.902362 0.0068,-13.717266 -0.142698,-14.310096 z M 32.315071,42.071151 c -0.629745,-0.202003 -1.587116,-1.032722 -1.927562,-1.672562 -0.197474,-0.371138 -0.24597,-0.650668 -0.24597,-1.417744 0,-1.144918 0.195364,-1.592276 1.040652,-2.382944 1.612211,-1.508035 4.316352,-1.026612 5.300947,0.943736 0.822062,1.645091 0.109833,3.65529 -1.556943,4.394334 -0.666759,0.295637 -1.910202,0.360012 -2.611124,0.13518 z m 1.935278,-2.407217 c 0.560931,-0.560928 0.368454,-1.323849 -0.416762,-1.651932 -0.321015,-0.134129 -0.43441,-0.134974 -0.744058,-0.0055 -0.510786,0.213509 -0.697437,0.481272 -0.697437,1.00051 0,0.933243 1.168773,1.346446 1.858257,0.656962 z m 7.147925,2.388497 c -1.257978,-0.434687 -2.144448,-1.704417 -2.144448,-3.071586 0,-2.907776 3.473824,-4.32007 5.737452,-2.332578 0.632374,0.555234 0.938354,1.316735 0.939676,2.338609 0.0017,1.350896 -0.587124,2.295876 -1.828644,2.934488 -0.637957,0.328152 -1.949677,0.391732 -2.704036,0.131067 z m 2.001866,-2.368845 c 0.766175,-0.766177 -0.09095,-2.054458 -1.137166,-1.709178 -0.47501,0.156768 -0.714803,0.494394 -0.714803,1.006437 0,0.515351 0.254844,0.871484 0.707574,0.988797 0.493388,0.12785 0.809506,0.04883 1.144395,-0.286056 z m 7.272495,2.390251 c -1.783734,-0.556658 -2.707063,-2.437709 -2.088157,-4.2541 0.213098,-0.625405 0.944478,-1.417249 1.634428,-1.769549 1.168833,-0.596821 2.799798,-0.369828 3.799255,0.528768 0.863825,0.776653 1.07238,1.243769 1.07238,2.401889 0,1.157569 -0.208598,1.625274 -1.070495,2.400195 -0.894337,0.804085 -2.154844,1.064966 -3.347411,0.692797 z m 1.835775,-2.352664 c 0.149237,-0.149237 0.302803,-0.396705 0.341261,-0.54993 0.102062,-0.406644 -0.229659,-0.965349 -0.686486,-1.156224 -0.332835,-0.139067 -0.43809,-0.139482 -0.764695,-0.003 -0.785216,0.328084 -0.977691,1.091005 -0.41676,1.651933 0.434922,0.434924 1.123191,0.460728 1.52668,0.05723 z M 8.5810194,34.352236 11.865194,32.124006 H 23.31085 c 9.981637,0 11.53135,-0.02231 12.115614,-0.174456 1.306477,-0.340205 2.248717,-1.095672 2.821541,-2.262252 l 0.321375,-0.65449 V 19.253382 9.4739551 L 38.244073,8.8114263 C 37.679448,7.6614966 36.704975,6.8856299 35.407979,6.553355 34.804909,6.398856 33.116672,6.3819437 20.966426,6.4086825 L 7.207771,6.4389609 6.4717994,6.7877196 C 5.5867658,7.2071155 5.0391775,7.6690175 4.5815273,8.3822026 3.8639659,9.500427 3.8917585,8.8755801 3.8917585,23.889882 v 13.638046 l 0.702545,-0.473732 c 0.3863998,-0.260552 2.180422,-1.476435 3.9867159,-2.70196 z M 11.366837,22.471168 C 10.391012,22.216731 9.4308907,21.448297 9.0553381,20.62116 8.9034124,20.286549 8.8426121,19.895621 8.8426121,19.253382 c 0,-1.078365 0.214628,-1.6317 0.8853985,-2.282661 1.0704084,-1.038795 2.6948614,-1.277911 4.0354244,-0.594008 0.58574,0.298824 1.407055,1.229631 1.572636,1.782292 0.187233,0.624928 0.166658,1.830925 -0.03966,2.324715 -0.243364,0.582454 -1.014861,1.382954 -1.636388,1.697905 -0.572684,0.2902 -1.730161,0.436347 -2.293186,0.289543 z m 1.526145,-2.478494 c 0.635477,-0.635475 0.301389,-1.62614 -0.596607,-1.769106 -0.526672,-0.08385 -0.941717,0.16635 -1.165864,0.702808 -0.141432,0.338494 -0.140353,0.426757 0.0087,0.715081 0.386815,0.748015 1.195059,0.909884 1.753724,0.351217 z m 7.605196,2.460994 c -1.557583,-0.391168 -2.549225,-1.634743 -2.551952,-3.200286 -0.0024,-1.334363 0.720935,-2.442528 1.947418,-2.983794 0.627607,-0.276974 1.761328,-0.332125 2.510205,-0.122112 0.671686,0.188367 1.495694,0.884753 1.889816,1.597124 0.296557,0.536022 0.336988,0.717965 0.335276,1.508782 -0.0022,0.987921 -0.193997,1.493952 -0.849486,2.240511 -0.691462,0.787533 -2.20468,1.230148 -3.281277,0.959775 z m 1.572167,-2.528185 c 0.339688,-0.339687 0.385919,-0.447201 0.326261,-0.758748 -0.08546,-0.446307 -0.64854,-0.981222 -1.032884,-0.981222 -0.372636,0 -0.911278,0.283189 -1.05718,0.55581 -0.271797,0.507858 -0.08535,1.129905 0.421021,1.404706 0.51778,0.280989 0.904817,0.21742 1.342782,-0.220546 z m 7.444698,2.497479 c -1.354345,-0.382919 -2.294356,-1.469207 -2.432889,-2.811479 -0.179004,-1.734362 0.976505,-3.249936 2.707677,-3.551405 1.191535,-0.207496 2.118526,0.05915 3.014932,0.867213 1.328061,1.197189 1.336166,3.391577 0.01719,4.652992 -0.83191,0.795603 -2.221231,1.149635 -3.306904,0.842679 z m 1.469101,-2.271487 c 1.007338,-0.520915 0.548428,-1.965962 -0.624341,-1.965962 -0.38347,0 -1.065563,0.661818 -1.060033,1.028527 0.01279,0.848112 0.901082,1.342492 1.684374,0.937435 z"
       id="path1"
       sodipodi:nodetypes="sscssssccccccssssssscsssscccsssscsssscsssscccssssssssssssssssssssssssssssssssssssssssscssscccssscssscsssssssssssssssssssssssssssssssssssssssss" />
  </g>
</svg>
