<?xml version="1.0" encoding="UTF-8" standalone="no"?>
<!-- Created with Inkscape (http://www.inkscape.org/) -->

<svg
   version="1.1"
   id="svg1"
   width="64"
   height="64"
   viewBox="0 0 64 64"
   sodipodi:docname="mode-edit.svg"
   inkscape:version="1.4.2 (f4327f4, 2025-05-13)"
   xmlns:inkscape="http://www.inkscape.org/namespaces/inkscape"
   xmlns:sodipodi="http://sodipodi.sourceforge.net/DTD/sodipodi-0.dtd"
   xmlns="http://www.w3.org/2000/svg"
   xmlns:svg="http://www.w3.org/2000/svg">
  <defs
     id="defs1" />
  <sodipodi:namedview
     id="namedview1"
     pagecolor="#ffffff"
     bordercolor="#000000"
     borderopacity="0.25"
     inkscape:showpageshadow="2"
     inkscape:pageopacity="0.0"
     inkscape:pagecheckerboard="0"
     inkscape:deskcolor="#d1d1d1"
     inkscape:zoom="5.916955"
     inkscape:cx="36.167252"
     inkscape:cy="37.772807"
     inkscape:window-width="1920"
     inkscape:window-height="1057"
     inkscape:window-x="1912"
     inkscape:window-y="-8"
     inkscape:window-maximized="1"
     inkscape:current-layer="g1" />
  <g
     inkscape:groupmode="layer"
     inkscape:label="Image"
     id="g1">
    <path
       style="fill:#aaaaaa;stroke-width:0.11534;fill-opacity:1"
       d="M 13.64463,61.957089 C 13.448293,61.645061 7.4424908,55.962569 6.7680552,55.450699 6.0328728,54.892726 5.1767197,54.09609 2.6310852,51.601316 0.53407587,49.546205 0.43902053,49.944075 3.8310164,46.578794 5.3081251,45.113319 7.3471145,43.059855 8.3621041,42.015546 9.3770938,40.971237 11.52488,38.848478 13.134963,37.298305 c 2.824839,-2.719729 3.675311,-3.57237 4.745201,-4.757308 0.500873,-0.554733 0.500873,-0.554733 -0.183352,-1.204501 -1.178967,-1.119591 -3.57911,-3.423464 -6.446415,-6.187852 -7.5176327,-7.247797 -7.7902314,-7.517134 -7.7902314,-7.697043 0,-0.06304 -0.1557085,-0.245657 -0.3460192,-0.405793 -0.1988618,-0.167331 -0.3460192,-0.40342 -0.3460192,-0.555129 0,-0.145186 -0.077854,-0.328587 -0.1730096,-0.40756 -0.1394814,-0.11576 -0.1730096,-0.473388 -0.1730096,-1.845435 0,-1.372048 0.033528,-1.729678 0.1730096,-1.845437 0.095155,-0.07897 0.1730096,-0.234681 0.1730096,-0.346019 0,-0.111338 0.077854,-0.267047 0.1730096,-0.346019 0.095156,-0.07897 0.1730096,-0.207523 0.1730096,-0.285667 0,-0.122042 2.3088814,-2.4033714 6.2735141,-6.1986555 0.5778068,-0.5531268 1.1350345,-1.007277 1.2382815,-1.0092227 0.103248,-0.00195 0.252335,-0.081392 0.331308,-0.1765472 0.07897,-0.095156 0.234679,-0.1730096 0.346018,-0.1730096 0.111339,0 0.267048,-0.077854 0.346019,-0.1730096 0.116148,-0.1399507 0.479797,-0.1730096 1.903106,-0.1730096 1.42331,0 1.786958,0.03306 1.903106,0.1730096 0.07897,0.095156 0.257276,0.1730096 0.396232,0.1730096 0.138957,0 0.401827,0.1557087 0.584156,0.3460192 0.182329,0.1903107 0.399617,0.3460192 0.482864,0.3460192 0.166193,0 1.369121,1.1108035 4.362175,4.0280996 1.07885,1.0515438 3.362577,3.259328 5.074948,4.906187 1.712372,1.64686 3.627108,3.504316 4.254967,4.127681 1.141563,1.13339 1.141563,1.13339 2.710484,-0.407387 0.862907,-0.847427 2.186251,-2.133952 2.940767,-2.858943 1.363978,-1.310608 1.911135,-1.870922 3.765096,-3.855641 0.533318,-0.5709317 1.100866,-1.1627925 1.261216,-1.3152463 0.765213,-0.727528 6.250563,-6.0299222 6.842586,-6.6143607 0.664766,-0.6562507 0.67893,-0.6632035 1.351059,-0.6632035 0.420574,0 0.714375,0.055344 0.771486,0.1453259 0.192026,0.3025557 5.905218,5.7098628 6.728178,6.3679527 0.89371,0.7146654 1.614103,1.3840359 4.292498,3.9884819 2.054355,1.997637 2.041967,1.846289 0.289194,3.532942 -0.713201,0.686298 -2.075652,2.046989 -3.027669,3.02376 -3.088536,3.168842 -4.792243,4.865752 -7.772092,7.741086 -1.609838,1.553375 -3.27073,3.186223 -3.690872,3.628551 -0.42014,0.442327 -0.947459,0.995321 -1.171819,1.228874 -0.407926,0.424642 -0.407926,0.424642 -0.09636,0.695186 0.171366,0.148796 1.110944,1.049084 2.087953,2.000637 0.977009,0.951554 2.421745,2.348904 3.210526,3.105222 3.131501,3.002628 4.880442,4.759938 5.201076,5.225963 0.184985,0.268866 0.459352,0.513744 0.562664,0.609973 1.47555,1.374397 4.942671,16.584886 4.504604,17.112725 -0.121748,0.146697 -0.422836,0.456284 -1.20706,0.18224 -5.289452,-1.848375 -11.793622,-2.448643 -15.938974,-4.160509 -0.06179,-0.02552 -0.1566,-0.103397 -0.269897,-0.103397 -0.113299,0 -0.300928,-0.104896 -0.416954,-0.233104 -0.116026,-0.128208 -0.443168,-0.386915 -0.726982,-0.574908 -0.458288,-0.303556 -4.452723,-4.077804 -9.071845,-8.571773 -1.611901,-1.568228 -1.611901,-1.568228 -3.226746,0.01306 -2.726812,2.670151 -5.496374,5.445916 -6.641806,6.656682 -0.600368,0.634613 -2.517806,2.52907 -4.260973,4.209901 -1.743168,1.680831 -3.472114,3.3545 -3.842103,3.719263 -0.665555,0.656148 -0.679936,0.663202 -1.351962,0.663202 -0.424083,0 -0.713899,-0.05507 -0.771484,-0.146586 z m 2.632534,-4.375473 c 2.1659,-2.290989 3.650906,-3.776695 7.412117,-7.415604 3.266151,-3.159949 4.230577,-4.13237 5.03321,-5.074949 0.270093,-0.317184 0.529325,-0.60265 0.57607,-0.634368 0.163376,-0.110855 6.637736,-6.414121 8.069148,-7.855911 0.794249,-0.800004 2.19668,-2.228361 3.116514,-3.174125 0.919835,-0.945763 2.45097,-2.467602 3.402523,-3.381863 3.221232,-3.09499 5.620797,-5.481964 6.034901,-6.003235 0.226777,-0.285465 0.484776,-0.58025 0.57333,-0.655078 0.08855,-0.07483 1.078233,-1.03503 2.199288,-2.133785 1.121056,-1.098755 3.140349,-3.061245 4.487319,-4.36109 1.346969,-1.299845 2.449036,-2.408631 2.449036,-2.463968 0,-0.05534 -0.376296,-0.445111 -0.836213,-0.86616 -0.459918,-0.421049 -1.5745,-1.480563 -2.476849,-2.354475 C 55.41521,10.333094 53.935977,8.9009504 53.030376,8.0244623 52.124774,7.1479752 51.04646,6.1311954 50.634121,5.7649512 50.22178,5.398707 49.798238,5.0012752 49.692915,4.881769 49.58759,4.762263 49.454843,4.6644853 49.397919,4.6644853 c -0.101632,0 -1.952784,1.8750459 -3.090753,3.1306407 -0.578414,0.6382014 -0.578414,0.6382014 0.720873,1.8850384 1.259352,1.2085156 1.299287,1.2620286 1.299287,1.7410596 0,0.44337 -0.05166,0.536552 -0.502073,0.905632 -0.276141,0.226276 -0.619113,0.411411 -0.762162,0.411411 -0.154497,0 -0.500866,-0.230804 -0.853169,-0.568517 -0.326194,-0.312682 -0.748789,-0.684533 -0.9391,-0.826334 -0.19031,-0.141799 -0.559063,-0.460301 -0.819452,-0.707784 -0.473432,-0.449968 -0.473432,-0.449968 -1.602942,0.629329 -1.129509,1.079294 -1.129509,1.079294 -0.564625,1.60959 0.310687,0.291662 0.746544,0.676424 0.968574,0.855027 0.565842,0.455171 1.328395,1.130278 2.10495,1.863567 0.620683,0.5861 0.663204,0.660301 0.663204,1.157337 0,0.419197 -0.06529,0.599236 -0.309929,0.854578 -0.267691,0.279408 -0.397372,0.323149 -0.951552,0.320944 -0.636484,-0.0026 -0.648557,-0.0091 -1.506673,-0.824391 -0.475777,-0.452012 -1.397003,-1.345212 -2.047171,-1.98489 -1.182124,-1.163049 -1.182124,-1.163049 -2.255535,-0.0941 -1.073412,1.06895 -1.073412,1.06895 0.288239,2.41383 1.250927,1.235519 1.361653,1.379578 1.361653,1.771592 0,0.346025 -0.07901,0.49609 -0.417886,0.793621 -0.229838,0.2018 -0.541044,0.423024 -0.69157,0.491607 -0.477595,0.217608 -0.534244,-0.09252 -0.877664,-0.257921 -0.08978,-0.04324 -0.718402,-0.519174 -1.374994,-1.153721 -1.193806,-1.153722 -1.193806,-1.153722 -1.597495,-0.668012 -0.222029,0.26714 -0.689155,0.761958 -1.038058,1.099594 -0.634368,0.613885 -0.634368,0.613885 1.528252,2.697559 1.988458,1.915872 2.16262,2.115816 2.16262,2.482764 0,0.30244 -0.09002,0.481311 -0.371723,0.738606 -0.310859,0.283926 -0.466664,0.338628 -0.951554,0.33409 -0.579828,-0.0055 -0.579828,-0.0055 -2.59774,-1.960776 -1.10985,-1.075441 -2.044103,-1.954411 -2.076115,-1.953267 -0.03202,0.0012 -0.541297,0.456228 -1.131746,1.011297 -0.8242,0.774812 -1.055216,1.056975 -0.994636,1.214841 0.0434,0.113092 0.29613,0.371674 0.561626,0.574625 1.076657,0.823015 1.79496,1.522319 1.796667,1.749148 0.43511,0.950713 -0.370797,1.918742 -1.385843,1.734024 -0.121659,-0.02214 -0.228059,-0.173739 -0.331306,-0.174632 -0.103248,-9.23e-4 -0.704884,-0.49397 -1.336971,-1.095728 -0.632086,-0.601757 -1.184307,-1.094105 -1.227158,-1.094105 -0.04285,0 -0.555645,0.451579 -1.139541,1.003508 -1.061631,1.003508 -1.061631,1.003508 -0.216436,1.795186 0.464856,0.435422 1.455884,1.389492 2.202284,2.120153 1.183287,1.158337 1.35601,1.375268 1.34866,1.693842 -0.04395,0.752922 -0.416962,1.053421 -1.135504,1.092016 -0.72255,0.03462 -0.72255,0.03462 -1.663579,-0.886267 -0.517566,-0.506484 -1.200543,-1.113503 -1.517727,-1.348933 -0.317185,-0.235429 -0.841621,-0.683758 -1.165413,-0.996287 -0.588714,-0.568234 -0.588714,-0.568234 -1.614756,0.48352 -0.564323,0.578465 -1.046112,1.073713 -1.07064,1.100552 -0.02453,0.02683 0.209033,0.286621 0.519029,0.577295 0.309994,0.290676 0.890306,0.847355 1.289583,1.237064 0.725957,0.708559 0.725957,0.708559 0.692037,1.33729 0.06828,0.70945 -0.364484,1.043545 -0.912124,1.07392 -0.389433,0.0216 -0.759216,-0.06682 -2.189137,-1.458541 -1.160375,-1.12937 -1.160375,-1.12937 -1.857881,-0.449759 -0.383628,0.373786 -0.872559,0.849888 -1.086514,1.058006 -0.38901,0.378395 -0.38901,0.378395 1.081269,1.796867 0.808653,0.780159 1.711975,1.64794 2.007385,1.928399 0.437281,0.415154 0.551836,0.60893 0.616352,1.042601 0.05717,0.38425 0.02921,0.629424 -0.100315,0.879904 -0.09876,0.190979 -0.263582,0.379476 -0.366271,0.418881 -0.102692,0.0394 -0.414695,0.07165 -0.693343,0.07165 -0.45506,0 -0.59206,-0.07338 -1.345809,-0.720845 -0.461547,-0.396465 -1.425046,-1.287693 -2.14111,-1.980509 -1.453653,-1.406458 -1.161257,-1.437392 -2.905513,0.307398 -0.547041,0.547211 -0.547041,0.547211 0.653502,1.728607 0.660298,0.649769 1.275908,1.223573 1.368021,1.275123 0.103569,0.05796 0.167479,0.272618 0.167479,0.562518 0,0.405062 -0.06664,0.529077 -0.490194,0.912256 -0.298149,0.269729 -0.608427,0.445318 -0.791981,0.448195 -0.227566,0.0035 -0.63834,-0.307488 -1.670206,-1.264747 -0.75263,-0.698214 -1.402449,-1.256169 -1.444042,-1.239903 -0.04159,0.01627 -1.385004,1.301196 -2.985358,2.855399 -1.6003544,1.554203 -3.4877298,3.384301 -4.1941673,4.066883 -1.2844326,1.241059 -1.2844326,1.241059 0.041975,2.524159 0.7295239,0.705705 2.598027,2.513361 4.1522303,4.017013 2.863168,2.770045 4.727515,4.496716 4.858556,4.499773 0.03958,9.22e-4 0.818121,-0.787579 1.730096,-1.752227 z m -6.646322,-8.74201 c 0.393662,-0.918969 3.241218,-3.596376 6.055337,-0.371525 1.391331,1.594404 -0.417627,5.332753 -2.941164,5.215794 -3.8160314,-0.176862 -3.6027806,-3.70366 -3.114173,-4.844269 z m 4.209901,1.485399 c -0.138031,-1.765186 -2.503345,-1.341877 -2.308414,0.08029 0.225292,1.643668 2.409049,1.206674 2.308414,-0.08029 z m 44.867159,7.187125 c -0.389862,-1.23052 -0.504736,-1.640718 -0.688371,-2.415343 -0.17921,-0.75596 -0.269506,-0.680942 -1.618424,0.588883 -0.63727,0.599906 -1.038057,1.116884 -1.038057,1.339 0.925219,0.06863 2.057579,0.655254 2.947971,0.696095 0.30601,0 0.445467,-0.05528 0.396881,-0.208635 z m -5.766987,-1.276659 c 0,-0.119106 0.07786,-0.28117 0.17301,-0.36014 0.540755,-0.965978 2.66652,-3.544261 4.011219,-3.690872 0.21981,0 0.09087,0.05157 0.04354,-0.210927 -0.06237,-0.345911 -1.272352,-6.140479 -2.093992,-6.940138 -0.08862,-0.08625 -0.17301,-0.202992 -0.17301,-0.275605 0,-0.07261 -0.570932,-0.701179 -1.268737,-1.396822 -1.268737,-1.264803 -1.268737,-1.264803 -1.26507,-0.80541 4.62e-4,0.05811 0.826625,2.824789 0.03242,3.653759 -0.788826,0.823358 -4.267099,-0.368544 -5.355841,-0.368544 -0.793256,0 -0.793256,0 -0.793256,0.735585 0,0.03355 0.692039,3.993773 0.692039,4.128339 0,0.726834 -0.02857,0.823936 -0.317185,1.07796 -0.844732,0.743499 -3.634173,-0.05568 -3.659759,-0.05588 -0.459081,-0.0036 -0.459081,-0.0036 0.634369,1.095657 0.601397,0.604629 1.288085,1.185548 1.525973,1.290933 0.818728,0.851494 7.810296,2.162273 7.814267,2.122113 z M 43.656066,45.379412 c -0.09516,-0.07897 -0.17301,-0.209277 -0.17301,-0.289568 0,-0.131655 -5.433979,-5.487893 -5.649931,-5.569098 -0.04975,-0.01871 -0.732245,0.654884 -1.516663,1.49687 -0.784419,0.841985 -1.639914,1.745142 -1.901101,2.007013 -0.474885,0.47613 -0.474885,0.47613 0.922718,1.816823 0.768682,0.737382 2.046388,1.964091 2.839349,2.726023 1.791995,1.977268 3.433938,1.6573 5.904372,2.079509 0.328165,0.06773 -0.387335,-4.235702 -0.425734,-4.267572 z m 6.47229,-1.899046 c -0.03556,-0.997352 -0.510925,-2.327602 -0.528625,-3.276741 -0.0036,-0.735207 -0.0036,-0.735207 -1.993279,-2.660826 -2.976325,-2.880596 -3.786229,-3.639689 -3.883313,-3.639689 -0.04838,0 -0.973215,0.846375 -2.05518,1.880835 -2.190337,2.094161 -2.465137,1.402104 2.449466,6.168755 0.697805,0.676797 1.356503,1.231603 1.463775,1.232901 0.10727,0.0013 0.227115,0.05426 0.266321,0.117696 0.633987,0.299726 4.425746,0.402775 4.280835,0.177069 z M 22.23339,28.216063 c 1.96403,-1.880835 1.96403,-1.880835 0.336441,-3.460191 -0.895175,-0.868649 -2.372928,-2.305999 -3.283898,-3.194114 -0.910971,-0.888116 -1.736001,-1.659474 -1.833404,-1.714128 -0.186449,-0.104617 -0.176988,-0.112833 -2.871856,2.492804 -1.278516,1.236181 -1.278516,1.236181 1.081344,3.515935 3.786774,3.658234 4.460521,4.291782 4.536044,4.265419 0.03922,-0.01369 0.955113,-0.871265 2.035329,-1.905725 z m 5.35311,-5.23653 c 0.78178,-0.837863 1.636015,-1.73955 1.8983,-2.003748 0.476881,-0.480362 0.476881,-0.480362 -0.421426,-1.331272 -0.71361,-0.675961 -5.47731,-5.271083 -5.780558,-5.576 -0.04041,-0.04062 -0.325869,0.169875 -0.634369,0.467775 -1.59239,1.537662 -3.386737,3.320665 -3.386737,3.365327 0,0.02784 0.869375,0.888373 1.931941,1.912284 1.062568,1.023911 2.580728,2.496896 3.373688,3.273298 0.792961,0.776403 1.476846,1.41256 1.519744,1.413683 0.0429,0.0012 0.717637,-0.683484 1.499417,-1.521347 z M 16.267315,17.409527 c 0.92215,-0.888116 2.473697,-2.388849 3.447884,-3.334961 1.771247,-1.720205 1.771247,-1.720205 0.399366,-3.051597 -0.754537,-0.732267 -2.09955,-2.0390714 -2.988921,-2.9040113 -1.677631,-1.6315454 -2.401069,-2.1857353 -2.853257,-2.1857353 -0.145737,0 -0.383509,-0.083023 -0.528381,-0.1844956 -0.241426,-0.169101 -0.280416,-0.169101 -0.46727,0 -0.112126,0.101472 -0.365401,0.1844956 -0.56283,0.1844956 -0.197432,0 -0.390185,0.050514 -0.428343,0.1122532 -0.03816,0.061739 -0.251878,0.1988562 -0.474937,0.3047043 C 11.587568,6.4560277 10.538741,7.3816123 9.4798963,8.4070337 8.4210526,9.4324563 7.1450148,10.65779 6.6442541,11.129999 c -0.9715043,0.916112 -1.6846718,1.895912 -1.6846718,2.31452 0,0.140785 -0.084501,0.349345 -0.18778,0.463467 -0.1734802,0.191694 -0.1734802,0.23763 0,0.603213 0.1032789,0.217643 0.18778,0.479407 0.18778,0.581695 0,0.407746 -0.1697674,0.229147 5.1295747,5.3964 1.502461,1.465011 1.502461,1.465011 3.001991,0 0.824742,-0.805756 2.254017,-2.191651 3.176167,-3.079767 z"
       id="path1"
       sodipodi:nodetypes="sssssssssssssssssssssssssssssssssssssssssssssssssssssssssssssssssssssssssssssssssssssssssssssssssssssssssssssssscssscscssssssssssssssssssssssssssssssssssssssssssssssssssssssssssssssssssssssssssssssssssssssssssssssssssssscssscssssssssssssssssssss" />
  </g>
</svg>
