<?xml version="1.0" encoding="UTF-8" standalone="no"?>
<!-- Created with Inkscape (http://www.inkscape.org/) -->

<svg
   version="1.1"
   id="svg1"
   width="64"
   height="64"
   viewBox="0 0 64 64"
   sodipodi:docname="providers.svg"
   inkscape:version="1.4.2 (f4327f4, 2025-05-13)"
   xmlns:inkscape="http://www.inkscape.org/namespaces/inkscape"
   xmlns:sodipodi="http://sodipodi.sourceforge.net/DTD/sodipodi-0.dtd"
   xmlns="http://www.w3.org/2000/svg"
   xmlns:svg="http://www.w3.org/2000/svg">
  <defs
     id="defs1" />
  <sodipodi:namedview
     id="namedview1"
     pagecolor="#ffffff"
     bordercolor="#000000"
     borderopacity="0.25"
     inkscape:showpageshadow="2"
     inkscape:pageopacity="0.0"
     inkscape:pagecheckerboard="0"
     inkscape:deskcolor="#d1d1d1"
     inkscape:zoom="5.916955"
     inkscape:cx="58.560526"
     inkscape:cy="58.053509"
     inkscape:window-width="1920"
     inkscape:window-height="1057"
     inkscape:window-x="1912"
     inkscape:window-y="-8"
     inkscape:window-maximized="1"
     inkscape:current-layer="g1" />
  <g
     inkscape:groupmode="layer"
     inkscape:label="Image"
     id="g1">
    <path
       style="fill:#aaaaaa;stroke-width:0.110559;fill-opacity:1"
       d="M 9.5576736,57.196002 C 3.7212952,55.240224 1.9218998,54.594944 1.7079926,54.381037 l -0.277525,-0.277524 v -9.99416 -9.994159 L 1.6847371,33.844536 C 1.8681416,33.649312 3.9249386,32.824657 9.0645434,30.88567 l 7.1255356,-2.688207 v -8.774775 c 0,-7.424979 0.02451,-8.822177 0.159359,-9.082938 0.141241,-0.273131 0.584293,-0.4689133 3.897201,-1.7221584 2.055812,-0.7776963 5.495008,-2.0793446 7.642655,-2.8925522 2.147649,-0.8132077 3.99699,-1.4785588 4.109647,-1.4785588 0.112658,0 3.623476,1.2935392 7.80182,2.8745315 4.178344,1.5809913 7.613822,2.8745305 7.634396,2.8745305 0.02058,0 0.113314,0.1467844 0.206087,0.3261874 0.147041,0.284346 0.168677,1.451964 0.168677,9.10299 v 8.776805 l 2.238818,0.838617 c 1.23135,0.461239 4.029872,1.518245 6.218937,2.348902 2.189066,0.830658 4.384128,1.657842 4.877916,1.83819 0.493787,0.180346 1.016178,0.453916 1.160868,0.607932 l 0.263072,0.280028 v 9.994159 9.99416 l -0.276529,0.276531 c -0.213025,0.213025 -2.028422,0.861794 -7.90496,2.825002 L 46.759612,59.753519 39.379806,57.288632 32,54.823745 24.623214,57.285392 c -4.057232,1.353908 -7.40302,2.458589 -7.435085,2.45485 -0.03206,-0.0038 -3.46577,-1.148647 -7.6304554,-2.54424 z M 16.190079,48.8759 V 40.547613 L 13.840703,39.703022 C 5.6513143,36.758976 3.7533235,36.087439 3.6218418,36.087439 c -0.1218067,0 -0.1424948,1.464442 -0.1190844,8.430116 l 0.028329,8.430115 6.3018571,2.119809 c 3.4660205,1.165895 6.3142945,2.123611 6.3294965,2.128258 0.0152,0.0046 0.02764,-3.739279 0.02764,-8.319837 z m 14.710148,-4.322845 c -0.0047,-4.617037 -0.03197,-8.41806 -0.06062,-8.446716 -0.02866,-0.02866 -2.863882,0.958013 -6.300504,2.192598 L 18.2907,40.543636 v 8.321878 8.321878 l 6.309025,-2.119861 6.309025,-2.119861 z m 14.809075,4.321587 v -8.329545 l -6.301856,-2.266108 -6.301857,-2.266106 v 8.384475 c 0,4.61146 -0.0061,8.421787 -0.01348,8.467393 -0.0092,0.05652 11.031606,3.854718 12.58955,4.330986 0.0152,0.0046 0.02764,-3.739846 0.02764,-8.321095 z m 14.787943,-4.357087 c 0.02309,-6.871527 0.0016,-8.430116 -0.115855,-8.430116 -0.131007,0 -1.477969,0.474456 -7.430481,2.617323 -1.094532,0.394025 -2.699018,0.967807 -3.565523,1.275071 l -1.575465,0.558661 v 8.32445 8.324448 l 6.329497,-2.119861 6.329496,-2.119861 z m -9.41119,-7.387599 c 2.302625,-0.826841 4.901077,-1.755289 5.774337,-2.063217 0.985856,-0.34763 1.530701,-0.591121 1.437266,-0.642312 -0.258021,-0.141365 -11.421271,-4.343295 -11.538046,-4.343008 -0.137998,3.32e-4 -11.678259,4.371163 -11.638009,4.407843 0.01613,0.0147 2.34277,0.855336 5.170314,1.868086 2.827543,1.012749 5.439497,1.955726 5.804342,2.095505 0.364843,0.139778 0.69482,0.237561 0.733279,0.217297 0.03846,-0.02027 1.953893,-0.713353 4.256517,-1.540194 z M 23.129342,36.565962 c 3.178116,-1.139018 5.715442,-2.104797 5.638502,-2.146172 -0.132428,-0.07121 -1.540194,-0.605625 -8.551178,-3.246159 l -2.993904,-1.12759 -5.779785,2.184979 c -3.1788811,1.201737 -5.7998256,2.205017 -5.8243191,2.22951 -0.053012,0.05301 11.3260601,4.15189 11.5664521,4.16638 0.09121,0.0055 2.766116,-0.921929 5.944232,-2.060948 z m 7.845986,-11.669578 -0.02564,-7.974274 -3.482606,-1.252774 c -7.868747,-2.83057 -9.022044,-3.241499 -9.097468,-3.241499 -0.0434,0 -0.07892,3.54739 -0.07892,7.883089 v 7.883088 l 6.274217,2.380196 c 3.450819,1.309107 6.310629,2.361352 6.355133,2.338321 0.04451,-0.02303 0.06938,-3.630298 0.05528,-8.016147 z m 7.492367,6.031865 c 2.006644,-0.760038 4.456905,-1.684204 5.445025,-2.053702 l 1.796582,-0.671813 v -7.887448 c 0,-4.338097 -0.03368,-7.887449 -0.07485,-7.887449 -0.07465,0 -0.689731,0.218438 -7.16676,2.54521 -1.885029,0.677167 -3.875089,1.391805 -4.422356,1.588086 l -0.99503,0.356873 -0.02861,7.898693 c -0.01574,4.344283 -0.0062,7.957616 0.02138,8.029631 0.03496,0.09156 0.309588,0.03061 0.913079,-0.20263 0.474698,-0.18346 2.504888,-0.955413 4.511531,-1.715451 z m -1.105589,-17.79977 c 2.79714,-1.005314 5.309591,-1.904221 5.583224,-1.99757 0.273633,-0.09335 0.536845,-0.204932 0.584916,-0.247961 0.04807,-0.04303 -0.847457,-0.431178 -1.990059,-0.862555 -8.113204,-3.0630467 -9.451574,-3.5627351 -9.542476,-3.5627351 -0.0562,0 -1.558787,0.5509946 -3.339076,1.2244316 -1.780288,0.6734371 -4.371533,1.6507434 -5.758321,2.1717923 -1.386787,0.5210492 -2.481321,0.9836232 -2.432295,1.0279432 0.04903,0.04432 2.079196,0.791774 4.511492,1.66101 2.432295,0.869236 4.994497,1.792026 5.693782,2.050644 0.699285,0.258618 1.346055,0.446057 1.437266,0.41653 0.09121,-0.02953 2.454407,-0.876216 5.251547,-1.88153 z"
       id="path1" />
  </g>
</svg>
