<?xml version="1.0" encoding="UTF-8" standalone="no"?>
<!-- Created with Inkscape (http://www.inkscape.org/) -->

<svg
   version="1.1"
   id="svg1"
   width="64"
   height="64"
   viewBox="0 0 64 64"
   sodipodi:docname="rules.svg"
   inkscape:version="1.4.2 (f4327f4, 2025-05-13)"
   xmlns:inkscape="http://www.inkscape.org/namespaces/inkscape"
   xmlns:sodipodi="http://sodipodi.sourceforge.net/DTD/sodipodi-0.dtd"
   xmlns="http://www.w3.org/2000/svg"
   xmlns:svg="http://www.w3.org/2000/svg">
  <defs
     id="defs1" />
  <sodipodi:namedview
     id="namedview1"
     pagecolor="#ffffff"
     bordercolor="#000000"
     borderopacity="0.25"
     inkscape:showpageshadow="2"
     inkscape:pageopacity="0.0"
     inkscape:pagecheckerboard="0"
     inkscape:deskcolor="#d1d1d1"
     inkscape:zoom="5.916955"
     inkscape:cx="24.421345"
     inkscape:cy="61.095614"
     inkscape:window-width="1920"
     inkscape:window-height="1057"
     inkscape:window-x="1912"
     inkscape:window-y="-8"
     inkscape:window-maximized="1"
     inkscape:current-layer="g1" />
  <g
     inkscape:groupmode="layer"
     inkscape:label="Image"
     id="g1">
    <path
       style="fill:#aaaaaa;stroke-width:0.111779;fill-opacity:1"
       d="M 60.291055,62.211569 C 54.896432,61.047697 49.109872,59.861138 44.329829,57.70558 44.116769,57.609501 43.221469,56.822364 42.928088,56.711975 42.558893,56.573059 2.8287016,16.779538 2.8287016,16.548668 c 0,-0.09964 -0.1509006,-0.308128 -0.3353345,-0.463319 -0.1844341,-0.155191 -0.3353347,-0.369478 -0.3353347,-0.476192 0,-0.106719 -0.076662,-0.278738 -0.1703589,-0.382273 -0.2938649,-0.324717 -0.3328722,-3.741365 -0.045991,-4.028248 0.1189924,-0.118991 0.2163489,-0.31079 0.2163489,-0.426219 0,-0.115427 0.07545,-0.272487 0.1676674,-0.34902 0.092217,-0.07654 0.1676673,-0.2213 0.1676673,-0.321703 0,-0.2376853 7.3780699,-7.6145503 7.6157929,-7.6145503 0.09972,0 0.243927,-0.07545 0.320461,-0.1676673 0.07654,-0.092217 0.240623,-0.1676673 0.364644,-0.1676673 0.124019,0 0.286382,-0.083273 0.360804,-0.1850534 0.19945,-0.2727622 3.592311,-0.2703813 3.982325,0.00279 0.143117,0.1002412 0.340209,0.1822589 0.437983,0.1822589 0.09777,0 0.322344,0.1509006 0.499042,0.3353345 0.176699,0.1844341 0.397262,0.3353347 0.490136,0.3353347 0.148338,0 6.170246,5.9653196 19.49476,19.3115652 2.164603,2.168132 4.831996,4.834042 5.92754,5.924245 8.310963,8.270437 14.602052,14.645141 14.917467,15.115734 0.206107,0.307509 0.519772,0.560323 0.59111,0.674905 2.138249,3.434424 3.804036,11.556771 4.509798,15.636777 0.08423,0.358406 0.40735,2.285841 0.153592,2.539284 -0.1635,0.163297 -1.133783,0.260223 -1.867767,0.186581 z m -0.906134,-3.136706 c -0.438906,-1.712438 0.472833,-4.576602 -2.281688,-1.977852 -2.223927,2.098161 0.0034,1.860978 1.453488,2.11402 0.480602,0.08386 0.832336,0.221427 0.8282,-0.136168 z m -5.830147,-1.341977 c 0.129824,0.01273 0.107085,-0.29474 0.195612,-0.36821 0.115754,-0.518869 0.546505,-0.897602 0.831627,-1.332236 0.682567,-1.040487 2.017525,-1.592082 2.794456,-2.294987 0.07654,-0.09222 0.230623,-0.167666 0.342424,-0.167666 0.28288,0 0.166638,-0.102019 0.176271,-0.355608 0.09743,-2.564715 -1.245698,-5.478727 -2.307147,-7.580436 -0.06479,-0.128289 -0.503211,-0.744133 -1.337918,-1.596349 -1.245998,-1.272136 -2.117092,-1.367935 -1.180647,-0.129842 2.242942,2.965432 -3.147509,4.018414 -4.474154,3.014986 -1.172561,-0.88688 -2.313939,0.27239 -1.663928,1.690011 0.272969,0.595326 0.240205,1.950213 0.332725,2.435648 0.320608,1.682173 -1.294563,2.436837 -3.301011,2.018588 -0.140136,-0.02921 -0.335759,-0.166494 -0.7123,-0.164247 -0.57315,0.0034 -0.676872,0.118267 0.792833,1.341338 3.524275,2.932861 5.054805,3.052385 9.511157,3.48901 z M 44.51842,49.797272 c -0.07189,-0.840123 -0.325899,-1.592611 -0.33178,-2.438853 0,-0.776386 -0.0409,-1.060783 -0.167668,-1.165995 -0.09222,-0.07654 -0.169099,-0.221018 -0.170849,-0.321076 C 43.846349,45.771291 37.809542,39.654374 30.432944,32.278204 17.020946,18.866983 17.020946,18.866983 14.927172,20.960759 c -2.093774,2.093774 -2.093774,2.093774 11.430943,15.618839 13.524717,13.525063 13.524717,13.525063 14.377485,13.525063 0.75364,0.107406 1.466133,0.173851 2.221479,0.335335 1.304696,0.315473 1.705377,-0.03305 1.561341,-0.642724 z m 6.095466,-5.728633 C 50.621686,42.963815 50.131413,41.720814 50.11444,40.65923 50.11094,39.87661 50.11094,39.87661 36.585821,26.35189 23.060757,12.827173 23.060757,12.827173 20.967582,14.920348 c -2.093172,2.093174 -2.093172,2.093174 11.317445,15.506018 7.375841,7.377063 13.492485,13.414163 13.592544,13.415779 0.100057,0.0017 0.244543,0.07839 0.321076,0.170605 0.861878,0.281856 4.317397,0.950096 4.415239,0.05589 z M 16.241956,16.180105 c 5.084856,-5.085777 5.084856,-5.085777 1.844603,-8.3274762 -1.78214,-1.7829354 -3.297295,-3.2416991 -3.367013,-3.2416991 -0.06972,0 -0.189377,-0.07545 -0.26591,-0.1676674 -0.07654,-0.092217 -0.257036,-0.1676672 -0.401119,-0.1676672 -0.144081,0 -0.438623,-0.084243 -0.654537,-0.187205 -0.367161,-0.1750861 -0.405961,-0.1750861 -0.59943,0 -0.113771,0.1029623 -0.360214,0.187205 -0.547649,0.187205 -0.187434,0 -0.403409,0.07545 -0.479943,0.1676672 -0.07654,0.092217 -0.215507,0.1676674 -0.308832,0.1676674 -0.593504,0 -7.1803076,7.0347743 -7.1803076,7.6686433 0,0.151511 -0.079817,0.397291 -0.177373,0.546179 -0.1619778,0.247211 -0.1619778,0.292685 0,0.523941 0.097555,0.13928 0.177373,0.394715 0.177373,0.567632 0,0.172918 0.083762,0.450952 0.1861364,0.617853 0.1832648,0.298776 6.5209392,6.730704 6.6320732,6.730704 0.03139,0 2.345258,-2.288599 5.141928,-5.085777 z"
       id="path1"
       sodipodi:nodetypes="sssssscssssssssssssssssssssssssssssssssssssssssssssssssssssssssssssssssssssssssss" />
  </g>
</svg>
