<?xml version="1.0" encoding="UTF-8" standalone="no"?>
<!-- Created with Inkscape (http://www.inkscape.org/) -->

<svg
   version="1.1"
   id="svg1"
   width="64"
   height="64"
   viewBox="0 0 64 64"
   sodipodi:docname="settings-btn.svg"
   inkscape:version="1.4.2 (f4327f4, 2025-05-13)"
   xmlns:inkscape="http://www.inkscape.org/namespaces/inkscape"
   xmlns:sodipodi="http://sodipodi.sourceforge.net/DTD/sodipodi-0.dtd"
   xmlns="http://www.w3.org/2000/svg"
   xmlns:svg="http://www.w3.org/2000/svg">
  <defs
     id="defs1" />
  <sodipodi:namedview
     id="namedview1"
     pagecolor="#ffffff"
     bordercolor="#000000"
     borderopacity="0.25"
     inkscape:showpageshadow="2"
     inkscape:pageopacity="0.0"
     inkscape:pagecheckerboard="0"
     inkscape:deskcolor="#d1d1d1"
     inkscape:zoom="8.367838"
     inkscape:cx="32.087141"
     inkscape:cy="38.181905"
     inkscape:window-width="1920"
     inkscape:window-height="1057"
     inkscape:window-x="1912"
     inkscape:window-y="-8"
     inkscape:window-maximized="1"
     inkscape:current-layer="g1" />
  <g
     inkscape:groupmode="layer"
     inkscape:label="Image"
     id="g1">
    <path
       style="fill:#aaaaaa;stroke-width:0.112557;fill-opacity:1"
       d="m 10.375463,62.953205 c -0.03826,-0.06191 -0.147413,-0.112558 -0.242563,-0.112558 -0.09515,0 -0.5606781,-0.182911 -1.03451,-0.406467 C 8.2885122,62.052073 8.0479888,61.837883 5.0852783,58.860437 2.0428909,55.802917 1.7897172,55.501723 1.3350282,54.398863 1.1076932,53.847458 1.051391,53.42661 1.0489237,52.260279 1.0461837,50.966294 1.1249077,50.590377 1.605889,49.600603 1.9891482,48.811922 2.2165935,48.5749 11.07316,39.734745 c 4.636202,-4.627614 6.676724,-6.590214 7.073664,-6.803541 0.483478,-0.259835 0.694393,-0.300635 1.581721,-0.305979 0.726466,-0.0044 1.079784,0.04025 1.216411,0.153645 0.173197,0.14374 0.28205,0.07084 1.082549,-0.72496 0.573255,-0.569893 0.85445,-0.927595 0.790123,-1.005103 -0.05492,-0.06618 -0.134506,-0.449059 -0.176843,-0.850838 l -0.07697,-0.730508 -2.661179,-2.674343 c -1.849491,-1.858638 -2.712677,-2.652882 -2.830017,-2.60398 -1.278641,0.532876 -4.633191,0.79818 -6.213241,0.49139 C 9.46341,24.409483 6.9827256,23.394518 6.6056007,22.940111 6.5280918,22.846722 6.4075667,22.769852 6.3377633,22.769289 6.0900892,22.767297 4.2352751,20.941007 3.5593065,20.03357 3.1818181,19.526819 2.6430623,18.631025 2.3620713,18.042913 2.0810804,17.454803 1.8064275,16.88567 1.7517326,16.778174 c -0.054696,-0.107497 -0.099446,-0.294448 -0.099446,-0.415447 0,-0.121 -0.045054,-0.247844 -0.1001205,-0.281876 C 1.4970984,16.046815 1.4239337,15.853888 1.3895769,15.652118 1.3552198,15.450348 1.2683145,15.032011 1.1964546,14.722479 0.98849403,13.826705 0.93482004,11.352702 1.106553,10.578605 1.2929521,9.738403 1.697784,9.3760151 2.4499987,9.3760151 H 2.9450688 L 5.7698935,12.19921 8.5947166,15.022405 9.9353181,14.889304 C 11.615605,14.722478 12.768128,14.600131 13.654829,14.49446 l 0.69055,-0.08229 0.07403,-0.576465 c 0.124553,-0.9698 0.272721,-2.321135 0.384084,-3.502949 0.05834,-0.6190662 0.143725,-1.2178911 0.189755,-1.3307251 C 15.0604,8.8374328 14.50655,8.2237534 12.191555,5.8976621 9.3110149,3.003319 9.3061658,2.9976282 9.3061658,2.5116114 c 0,-0.6425089 0.4112546,-1.201077 0.9601242,-1.3040454 0.216177,-0.040555 0.420804,-0.1186452 0.454726,-0.1735337 0.08642,-0.13983711 3.169428,-0.12775616 3.256271,0.012759 0.03826,0.061907 0.190731,0.1125571 0.338823,0.1125571 0.677137,0 2.297349,0.542868 3.713234,1.2441552 2.488853,1.2327286 4.43536,3.1524576 5.586121,5.5092727 0.256929,0.5262048 0.503699,1.0580367 0.548374,1.1818496 0.230879,0.6398285 0.337539,1.0581731 0.337539,1.3238941 0,0.162194 0.04312,0.321548 0.09582,0.354117 0.153415,0.09482 0.243359,2.510516 0.132398,3.555895 -0.123783,1.166161 -0.251746,1.810992 -0.4914,2.476256 l -0.182464,0.506507 4.388329,4.389728 4.38833,4.389728 7.118346,-7.147377 7.118347,-7.147377 0.02892,-0.844178 c 0.01591,-0.464298 0.08516,-0.9961318 0.153893,-1.1818512 0.543485,-1.4685113 0.969745,-1.9640443 3.534012,-4.1083345 0.481203,-0.4023918 1.166413,-0.9848748 1.522686,-1.2944069 0.356275,-0.3095321 0.986415,-0.8413645 1.400311,-1.1818498 0.807956,-0.6646516 1.841463,-1.5449399 2.326497,-1.9815882 0.21782,-0.1960924 0.431235,-0.26955418 0.78308,-0.26955418 0.481823,0 0.49447,0.0107832 3.330544,2.83939168 l 2.846886,2.8393917 v 0.4975902 c 0,0.5456501 -0.02877,0.5883152 -1.717764,2.5468032 -0.480488,0.557159 -1.164281,1.358569 -1.519536,1.780915 -2.309757,2.745947 -3.451262,4.034659 -3.850961,4.347581 -0.785032,0.614596 -1.786167,0.997023 -2.831487,1.08161 l -0.971455,0.07861 -7.104624,7.105283 -7.104622,7.105284 4.379973,4.378893 c 4.335573,4.334502 4.38321,4.377603 4.699364,4.251731 0.960859,-0.38255 2.038391,-0.527377 3.921222,-0.527039 2.372783,4.49e-4 3.380527,0.211166 5.177627,1.082755 2.525907,1.225059 4.735053,3.640121 5.907577,6.458228 0.07727,0.185719 0.185235,0.425623 0.239919,0.533119 0.05469,0.107497 0.09942,0.294448 0.09942,0.415446 0,0.121 0.04506,0.247845 0.100118,0.281877 0.101861,0.06296 0.198562,0.504307 0.309955,1.41465 0.03409,0.278579 0.107718,0.554626 0.163622,0.613437 0.140732,0.14805 0.130634,3.069747 -0.0109,3.157227 -0.06191,0.03826 -0.112557,0.214631 -0.112557,0.391934 0,0.209905 -0.120825,0.443196 -0.34633,0.668701 -0.296038,0.296034 -0.429555,0.346329 -0.919384,0.346329 h -0.573049 l -2.829931,-2.815911 -2.829932,-2.815913 -1.231342,0.120999 c -1.123733,0.110425 -1.624095,0.163879 -3.723367,0.397775 -0.796058,0.08869 -0.74999,-0.0043 -0.944488,1.905172 -0.206839,2.030559 -0.324408,3.048167 -0.400932,3.470214 l -0.07817,0.431171 2.886406,2.894243 c 2.589706,2.596736 2.886409,2.931908 2.886409,3.260665 0,0.681839 -0.559348,1.368254 -1.114969,1.368254 -0.122338,0 -0.253736,0.05065 -0.291996,0.112558 -0.04097,0.0663 -0.711817,0.112557 -1.632078,0.112557 -0.920261,0 -1.591107,-0.04626 -1.632079,-0.112557 -0.03826,-0.06191 -0.227593,-0.112558 -0.420739,-0.112558 -0.193148,0 -0.519387,-0.05065 -0.724979,-0.112556 -0.205591,-0.06191 -0.563742,-0.166556 -0.795892,-0.232555 -0.232149,-0.066 -0.536053,-0.1673 -0.675342,-0.225114 -0.13929,-0.05781 -0.367217,-0.150603 -0.506508,-0.206198 -2.195204,-0.876169 -4.24732,-2.473525 -5.692326,-4.430877 -0.717249,-0.971561 -1.221462,-2.134777 -1.841134,-4.247497 -0.197178,-0.672257 -0.20286,-4.148837 -0.0079,-4.811817 0.07738,-0.263102 0.196284,-0.693633 0.264224,-0.956735 0.06794,-0.263103 0.164785,-0.559186 0.215212,-0.657961 0.07071,-0.138507 -0.530673,-0.801563 -2.628767,-2.898346 -2.505089,-2.503524 -2.751574,-2.718966 -3.113558,-2.721439 -0.216209,-0.0015 -0.595709,-0.05036 -0.843334,-0.108633 l -0.450229,-0.105949 -0.817062,0.814048 -0.817062,0.814047 0.125134,0.673412 c 0.161883,0.87117 0.05494,1.746713 -0.300969,2.464137 -0.222875,0.449256 -1.953776,2.24385 -8.016296,8.311276 -4.252624,4.256066 -7.76763,7.738302 -7.811125,7.738302 -0.04349,0 -0.296886,0.142835 -0.563092,0.317412 -0.266205,0.174575 -0.711938,0.382114 -0.990517,0.461198 -0.278579,0.07908 -0.594458,0.189502 -0.701954,0.245374 -0.267351,0.13896 -2.419082,0.12954 -2.505922,-0.01098 z m 2.224531,-2.718945 c 0.323884,-0.167432 0.631208,-0.325356 0.983347,-0.505313 0.154767,-0.07909 3.605633,-3.476033 7.668591,-7.548759 5.260195,-5.27284 7.402255,-7.491346 7.439485,-7.704986 0.07124,-0.408806 -0.144814,-0.862671 -0.631218,-1.325991 -0.22397,-0.21334 -0.407217,-0.440826 -0.407217,-0.505525 0,-0.0647 1.05055,-1.169079 2.334555,-2.454178 2.664202,-2.666468 2.641923,-2.654375 3.475174,-1.886313 0.669923,0.617514 1.246144,0.573502 1.647511,-0.125838 0.172275,-0.300174 0.176282,-0.374109 0.03476,-0.641371 -0.274965,-0.519268 -8.656311,-8.800585 -8.902405,-8.796157 -0.559154,0.01006 -1.141817,0.689972 -0.999891,1.166776 0.03867,0.129909 0.32414,0.497035 0.63438,0.815833 0.31024,0.318798 0.545496,0.623818 0.52279,0.677821 -0.02271,0.054 -1.094777,1.110088 -2.382381,2.346852 -2.665081,2.559854 -2.703375,2.580976 -3.477615,1.918256 -0.346579,-0.29666 -0.572929,-0.401214 -0.868587,-0.401214 -0.379041,0 -0.790736,0.390715 -7.907174,7.504209 -5.6314268,5.629094 -7.5686058,7.633016 -7.7525928,8.019695 -0.1348997,0.283517 -0.2903805,0.603437 -0.3455121,0.710933 -0.055131,0.107497 -0.1002393,0.447006 -0.1002393,0.754465 0,0.528321 0.049326,0.71447 0.4044527,1.526345 0.1910308,0.436725 5.8487888,6.046131 6.2926975,6.238917 0.185719,0.08066 0.413647,0.188451 0.506506,0.239541 0.255651,0.14066 1.544756,0.123761 1.830581,-0.024 z M 10.829609,58.101589 C 10.462656,57.7794 10.431742,57.703031 10.431742,57.118699 V 56.48514 l 6.727272,-6.727273 6.727275,-6.727272 h 0.691491 c 0.633978,0 0.715728,0.0288 0.98289,0.346307 0.35092,0.417045 0.393935,1.136609 0.09368,1.567164 -0.216371,0.310268 -12.285944,12.395336 -13.06273,13.079497 -0.640755,0.564351 -1.180877,0.588268 -1.762012,0.07802 z M 5.9381146,53.264635 C 5.6330308,52.95955 5.5917854,52.842493 5.5917854,52.281744 v -0.63656 l 6.7272736,-6.727274 6.727273,-6.727272 h 0.691491 c 0.633978,0 0.715728,0.0288 0.982891,0.346309 0.217148,0.258065 0.291398,0.472862 0.291398,0.842986 0,0.435493 -0.06635,0.569622 -0.538544,1.088795 -0.855937,0.941083 -12.2346598,12.323414 -12.7495512,12.753594 -0.63621,0.531538 -1.2813908,0.546824 -1.7859022,0.04232 z m 42.2326214,5.045588 c -1.172964,-1.181438 -1.844644,-1.944198 -1.897018,-2.154256 -0.06976,-0.279809 0.002,-1.172689 0.245537,-3.05151 0.05415,-0.417872 0.103542,-0.872132 0.373267,-3.432992 0.157673,-1.496999 0.242158,-1.835727 0.537087,-2.153333 0.301891,-0.325102 0.605092,-0.405318 2.115732,-0.559743 0.557158,-0.05695 1.443546,-0.152319 1.96975,-0.21192 0.526205,-0.0596 1.437917,-0.162754 2.026029,-0.229233 0.58811,-0.06648 1.462936,-0.149145 1.944058,-0.183706 l 0.874766,-0.06284 1.924248,1.897363 c 1.058338,1.043548 1.895377,1.796059 1.860089,1.672246 -0.03529,-0.123813 -0.09606,-0.377066 -0.135065,-0.562785 -0.173434,-0.825911 -1.138534,-2.941661 -1.465692,-3.21318 -0.08934,-0.07415 -0.162449,-0.199932 -0.162449,-0.279514 0,-0.250978 -2.169899,-2.352171 -2.701371,-2.615838 -0.278579,-0.138204 -0.633133,-0.321239 -0.787899,-0.406744 -0.260853,-0.144115 -0.503152,-0.250534 -1.153711,-0.506715 -0.839438,-0.330559 -1.36746,-0.405986 -2.842067,-0.405986 -1.477627,0 -2.211749,0.106558 -2.784261,0.404126 -0.107497,0.05587 -0.270571,0.101583 -0.362387,0.101583 -0.09181,0 -0.347298,0.101305 -0.567737,0.225114 -0.224911,0.126325 -0.609434,0.225115 -0.876227,0.225115 h -0.475428 l -4.892866,-4.893836 -4.892867,-4.893836 -0.370635,0.359234 -0.370636,0.359235 0.949436,0.960913 c 1.062194,1.075033 1.306739,1.458729 1.527073,2.396016 0.124122,0.528007 0.12627,0.766401 0.01167,1.294406 -0.07726,0.355963 -0.195969,0.748506 -0.263798,0.872319 -0.06783,0.123813 -0.195289,0.367598 -0.283242,0.541748 l -0.159917,0.316634 1.953398,1.988688 c 1.074368,1.093779 2.34594,2.373775 2.825714,2.844436 0.85606,0.839797 0.872318,0.866163 0.872318,1.414689 0,0.30742 -0.04475,0.607063 -0.09944,0.665874 -0.09389,0.100952 -0.352778,0.826623 -0.700107,1.962394 -0.315188,1.030671 -0.164787,3.849499 0.24774,4.643181 0.05587,0.107496 0.101583,0.262353 0.101583,0.344126 0,0.178213 0.623449,1.41956 1.029202,2.049241 0.399896,0.620589 1.486575,1.720446 2.261211,2.288632 0.354926,0.260335 1.089362,0.680066 1.632078,0.932736 0.542717,0.252669 1.074709,0.504952 1.182206,0.560625 0.107496,0.05567 0.319772,0.101231 0.471724,0.101231 0.151953,0 0.307582,0.05065 0.345842,0.112556 0.03826,0.06191 0.229188,0.112557 0.424284,0.112557 0.337974,0 0.268992,-0.08635 -1.461218,-1.829053 z M 51.02221,14.38968 c 0.173977,-0.121073 0.509845,-0.159978 1.238128,-0.143417 0.757408,0.01723 1.100364,-0.02527 1.41642,-0.175499 0.415849,-0.197663 1.594683,-1.340258 2.193717,-2.126277 0.173656,-0.22786 0.948871,-1.156463 1.7227,-2.0635616 0.773831,-0.9071 1.595583,-1.8856346 1.826115,-2.1745229 L 59.838442,7.1811521 58.298008,5.6362777 C 56.782898,4.1167999 56.753804,4.094745 56.528171,4.2946662 55.75082,4.9834391 53.917956,6.5403442 53.668603,6.7236927 53.505628,6.8435285 53.087864,7.1980834 52.74024,7.5115925 52.392618,7.8251021 51.717948,8.4108381 51.240977,8.81323 c -0.476972,0.402392 -0.969898,0.8975163 -1.095392,1.1002772 -0.366407,0.5920048 -0.538519,1.4062748 -0.414198,1.9595888 0.05911,0.263079 0.07645,0.606608 0.03854,0.763397 -0.04306,0.17803 -3.3728,3.591778 -8.867681,9.091386 l -8.798742,8.806314 0.670048,0.677113 0.67005,0.677115 8.669937,-8.6663 c 4.768464,-4.766465 8.777368,-8.741064 8.908675,-8.832441 z M 30.638973,28.282243 30.96571,27.941202 26.101468,23.075997 21.237226,18.210791 v -0.624213 c 0,-0.343317 0.04466,-0.67233 0.09925,-0.731142 0.187469,-0.201971 0.658429,-1.908634 0.797046,-2.888333 0.107625,-0.760665 0.109123,-1.164428 0.0066,-1.800914 C 21.866001,10.462782 21.442125,9.2648825 20.726555,8.1712541 20.199488,7.3657206 18.724985,5.9010444 17.939641,5.4029107 17.213771,4.9425018 15.906483,4.3109455 15.679332,4.3109455 c -0.09311,0 -0.200589,-0.05065 -0.23885,-0.1125571 -0.03826,-0.061907 -0.190213,-0.1125571 -0.337672,-0.1125571 -0.147458,0 -0.29941,-0.05065 -0.337671,-0.1125572 -0.03826,-0.061906 -0.227907,-0.1125571 -0.421438,-0.1125571 -0.33419,0 -0.259754,0.093191 1.48119,1.8544014 l 1.833062,1.8544015 -0.06041,0.9876658 c -0.03322,0.5432163 -0.117084,1.4941723 -0.186361,2.1132373 -0.262104,2.342241 -0.328058,2.960799 -0.443379,4.158359 -0.110912,1.151771 -0.141387,1.255359 -0.468655,1.593014 -0.400767,0.413486 -0.551629,0.459406 -2.015406,0.613448 -0.588111,0.06189 -1.499824,0.161072 -2.026029,0.220399 -0.526203,0.05933 -1.437916,0.161894 -2.026028,0.227926 -0.5881106,0.06603 -1.4629382,0.148334 -1.9440587,0.182894 l -0.8747657,0.06284 -1.9110229,-1.890258 c -1.6846403,-1.666334 -1.911023,-1.85425 -1.911023,-1.586301 0,0.167176 0.044433,0.391907 0.098739,0.499403 0.054308,0.107497 0.1592942,0.398051 0.2333028,0.645676 0.2093134,0.700334 1.0215436,2.300096 1.5070205,2.968215 0.5612098,0.772343 1.5874809,1.799235 2.2238001,2.225143 1.4989981,1.003327 3.5588309,1.660062 5.1668229,1.647338 0.611868,-0.0048 1.832622,-0.150797 2.082306,-0.248963 0.123813,-0.04867 0.427717,-0.149523 0.675343,-0.224099 0.46099,-0.138834 0.862253,-0.295399 1.208462,-0.471516 0.107496,-0.05469 0.406931,-0.09942 0.665411,-0.09942 0.464559,0 0.502863,0.03303 3.330452,2.871826 l 2.860488,2.871825 0.301042,-0.20265 c 0.693337,-0.466728 0.945902,-0.532244 2.034579,-0.527772 1.395539,0.0058 1.794464,0.196569 3.050771,1.459438 0.523125,0.525856 0.980766,0.956102 1.016981,0.956102 0.03622,0 0.212876,-0.153468 0.392581,-0.341039 z"
       id="path1" />
  </g>
</svg>
