<?xml version="1.0" encoding="UTF-8" standalone="no"?>
<!-- Created with Inkscape (http://www.inkscape.org/) -->

<svg
   version="1.1"
   id="svg1"
   width="64"
   height="64"
   viewBox="0 0 64 64"
   sodipodi:docname="tools.svg"
   inkscape:version="1.4.2 (f4327f4, 2025-05-13)"
   xmlns:inkscape="http://www.inkscape.org/namespaces/inkscape"
   xmlns:sodipodi="http://sodipodi.sourceforge.net/DTD/sodipodi-0.dtd"
   xmlns="http://www.w3.org/2000/svg"
   xmlns:svg="http://www.w3.org/2000/svg">
  <defs
     id="defs1" />
  <sodipodi:namedview
     id="namedview1"
     pagecolor="#ffffff"
     bordercolor="#000000"
     borderopacity="0.25"
     inkscape:showpageshadow="2"
     inkscape:pageopacity="0.0"
     inkscape:pagecheckerboard="0"
     inkscape:deskcolor="#d1d1d1"
     inkscape:zoom="8.367838"
     inkscape:cx="36.688091"
     inkscape:cy="20.375633"
     inkscape:window-width="1920"
     inkscape:window-height="1057"
     inkscape:window-x="1912"
     inkscape:window-y="-8"
     inkscape:window-maximized="1"
     inkscape:current-layer="g1" />
  <g
     inkscape:groupmode="layer"
     inkscape:label="Image"
     id="g1">
    <path
       style="fill:#aaaaaa;stroke-width:0.11069;fill-opacity:1"
       d="m 10.58154,62.771742 c -0.03763,-0.06088 -0.177102,-0.11069 -0.309948,-0.11069 -0.132846,0 -0.6155582,-0.183755 -1.0726928,-0.408344 C 8.4390479,61.879394 8.1004882,61.577361 5.252377,58.731964 2.3446657,55.827025 2.1104097,55.563515 1.7379788,54.778691 1.5185121,54.31621 1.338949,53.836354 1.338949,53.712344 c 0,-0.124011 -0.04981,-0.256258 -0.1106892,-0.293884 C 1.165967,53.379965 1.11757,52.847591 1.11757,52.200874 c 0,-0.646718 0.048397,-1.179088 0.1106898,-1.217588 0.060879,-0.03763 0.1106892,-0.172317 0.1106892,-0.299314 0,-0.126996 0.1797845,-0.609709 0.399519,-1.072692 0.3882209,-0.817983 0.6175002,-1.060228 8.1080218,-8.566543 4.3068862,-4.315965 7.9225392,-7.850873 8.1935362,-8.010554 0.746591,-0.43992 1.71201,-0.630086 2.391274,-0.471029 0.30529,0.07148 0.607832,0.171474 0.672314,0.222194 0.07254,0.05705 0.440163,-0.233359 0.964149,-0.761652 0.829094,-0.835904 0.844982,-0.862326 0.755208,-1.255898 -0.05043,-0.221117 -0.125541,-0.456781 -0.166899,-0.523697 -0.225097,-0.364216 0.427548,-2.274574 0.931648,-2.727033 0.135656,-0.121759 0.285703,-0.323444 0.333438,-0.448188 0.0478,-0.124926 0.41405,-0.392917 0.815331,-0.596595 0.700743,-0.35568 0.765577,-0.367647 1.699215,-0.313655 1.229908,0.07112 1.548855,0.242447 2.853932,1.532975 l 0.99774,0.986617 8.3724,-8.384201 8.372399,-8.384202 0.07777,-0.988629 c 0.04277,-0.543745 0.116902,-1.0667534 0.164733,-1.1622416 0.04783,-0.095483 0.20315,-0.4226661 0.345153,-0.727062 0.142002,-0.3043968 0.44543,-0.7711503 0.674284,-1.0372297 0.4003,-0.4654115 0.64096,-0.6829102 2.56444,-2.3176396 0.479311,-0.4073578 1.134625,-0.964797 1.456254,-1.2387541 0.321628,-0.273957 0.946497,-0.7969659 1.388598,-1.1622419 0.442101,-0.3652762 1.056952,-0.8918933 1.366334,-1.1702606 0.915165,-0.8234212 1.208671,-0.9881889 1.76029,-0.9881889 h 0.499464 l 2.776468,2.7733629 2.776467,2.7733629 -0.0027,0.5196561 c -0.003,0.5593982 -0.124595,0.7565216 -1.354113,2.1944 -0.856039,1.0011055 -2.167423,2.5396275 -2.764038,3.2427815 -0.287914,0.339328 -0.717581,0.866012 -0.954817,1.170408 -0.899089,1.153617 -2.043096,2.216229 -2.727913,2.533824 -0.365276,0.169402 -0.742263,0.34826 -0.837752,0.397463 -0.09548,0.04921 -0.618497,0.124272 -1.162242,0.16682 l -0.988628,0.07736 -8.382859,8.374153 -8.382861,8.374156 0.983496,0.996393 c 1.330473,1.347921 1.504415,1.701149 1.499057,3.044154 -0.0037,0.934666 -0.03847,1.115416 -0.312561,1.626101 -0.358103,0.667218 -1.101229,1.392099 -1.671342,1.630308 -0.218923,0.09147 -0.768668,0.199896 -1.221657,0.240946 -0.666122,0.06036 -0.876438,0.04003 -1.099847,-0.10636 -0.151928,-0.09954 -0.341347,-0.180994 -0.420931,-0.180994 -0.07958,0 -0.55526,0.412703 -1.057055,0.917118 -0.66915,0.672644 -0.879563,0.949907 -0.789344,1.040126 0.07137,0.07137 0.126527,0.558245 0.131386,1.15958 0.01401,1.732982 0.46955,1.186276 -8.309412,9.972234 -4.242953,4.246335 -7.770757,7.720607 -7.839566,7.720607 -0.06881,0 -0.187875,0.07564 -0.264596,0.168077 -0.07672,0.09244 -0.319419,0.246062 -0.53933,0.341375 -0.21991,0.09531 -0.486329,0.21892 -0.592042,0.274682 -0.105717,0.05576 -0.314467,0.101383 -0.463899,0.101383 -0.149432,0 -0.302478,0.04981 -0.340103,0.110689 -0.0385,0.06229 -0.570869,0.11069 -1.217588,0.11069 -0.646717,0 -1.179087,-0.0484 -1.217587,-0.11069 z m 2.103106,-2.656554 c 0.03763,-0.06088 0.143664,-0.110689 0.23564,-0.110689 0.09197,0 0.375448,-0.143616 0.629933,-0.319146 0.705326,-0.486496 15.124725,-14.95545 15.19895,-15.251186 0.105485,-0.420268 -0.03667,-0.750877 -0.58508,-1.360852 l -0.517705,-0.575811 2.503063,-2.503063 2.503065,-2.503063 0.592763,0.560611 c 0.326019,0.308336 0.699725,0.594559 0.830453,0.636051 0.455944,0.144711 1.244963,-0.492356 1.244963,-1.005202 0,-0.220718 -8.313452,-8.606644 -8.77216,-8.848631 -0.267928,-0.141344 -0.343955,-0.140125 -0.634591,0.01015 -0.181608,0.09391 -0.409327,0.323772 -0.506041,0.510798 -0.157824,0.305198 -0.158729,0.375905 -0.0089,0.689936 0.09186,0.19244 0.370363,0.547745 0.618908,0.789568 l 0.4519,0.439677 -2.464101,2.465927 c -1.35526,1.356257 -2.520684,2.465925 -2.589836,2.465925 -0.06916,0 -0.194094,-0.08302 -0.277648,-0.184489 -0.08356,-0.101467 -0.346178,-0.325615 -0.58361,-0.498104 -0.88307,-0.641528 -0.300174,-1.126775 -8.565152,7.130268 -4.0980708,4.094136 -7.5607573,7.618221 -7.6948579,7.831298 -0.664083,1.055179 -0.6944673,2.191765 -0.088772,3.320692 0.2067706,0.385389 5.4031318,5.602504 5.8767619,5.900235 0.21265,0.133674 0.536418,0.299363 0.719482,0.368199 0.42098,0.158294 1.791544,0.188057 1.882505,0.04087 z m -1.817867,-2.222309 c -0.292008,-0.292008 -0.340584,-0.421765 -0.340584,-0.909772 v -0.569188 l 6.727533,-6.727818 6.727533,-6.727819 h 0.66797 c 0.587361,0 0.703861,0.03746 0.965402,0.310455 0.248123,0.258984 0.297432,0.41006 0.297432,0.911269 v 0.600818 l -6.72632,6.726319 -6.726319,6.72632 h -0.626031 c -0.551483,0 -0.666589,-0.04056 -0.966616,-0.340584 z M 6.1103131,53.152671 C 5.8017534,52.864433 5.7665375,52.765415 5.7665375,52.186057 v -0.645482 l 6.7263205,-6.726319 6.72632,-6.72632 h 0.613838 c 0.534058,0 0.654152,0.04208 0.924041,0.323783 0.253995,0.265115 0.310206,0.422569 0.310206,0.868931 0,0.29983 -0.05219,0.639778 -0.115983,0.75544 -0.06378,0.115662 -3.097296,3.186465 -6.741126,6.824005 L 7.5850088,53.473806 H 7.0195483 c -0.4712216,0 -0.6227536,-0.05352 -0.9092352,-0.321135 z M 41.097646,24.216003 c 4.158636,-4.159442 8.11775,-8.09451 8.798034,-8.744599 l 1.236876,-1.181979 1.047163,0.02408 c 1.387011,0.0319 1.789013,-0.168962 2.875962,-1.436981 0.438873,-0.511984 1.047004,-1.217157 1.351401,-1.567052 0.304397,-0.349894 0.85231,-1.002061 1.217586,-1.4492614 0.365276,-0.4471942 0.865729,-1.0406595 1.112118,-1.3188067 0.246388,-0.2781471 0.586254,-0.6757606 0.755257,-0.8835854 L 59.799322,7.2799518 58.277201,5.7549129 56.755082,4.2298739 56.415047,4.4714925 c -0.18702,0.1328903 -0.596865,0.4661875 -0.91077,0.7406604 -0.313905,0.274473 -0.932456,0.797904 -1.374557,1.1631801 -0.442101,0.365276 -1.056952,0.8902683 -1.366334,1.1666494 -0.309383,0.2763812 -0.73685,0.6322742 -0.949927,0.7908735 -0.765534,0.5698057 -1.754684,1.6075818 -1.939355,2.0346881 -0.133641,0.309087 -0.185402,0.719287 -0.178443,1.414136 0.01015,1.012167 -0.118399,1.455361 -0.510451,1.760038 -0.106887,0.08307 -3.978851,3.945761 -8.604363,8.583768 l -8.410024,8.432741 0.602618,0.610196 c 0.33144,0.33561 0.638715,0.610199 0.682834,0.610199 0.04412,0 3.482735,-3.403179 7.641371,-7.562619 z"
       id="path1"
       sodipodi:nodetypes="ssssssssssssssssssssssscccssssssssscccssssssscccsssssssssssssssssssssssscccssssssssccssssssssssscccssscccsssscccssssscsssscsssssscccssssssssscsss" />
  </g>
</svg>
