<?xml version="1.0" encoding="UTF-8" standalone="no"?>
<!-- Created with Inkscape (http://www.inkscape.org/) -->

<svg
   version="1.1"
   id="svg1"
   width="64"
   height="64"
   viewBox="0 0 64 64"
   sodipodi:docname="workflow.svg"
   inkscape:version="1.4.2 (f4327f4, 2025-05-13)"
   xmlns:inkscape="http://www.inkscape.org/namespaces/inkscape"
   xmlns:sodipodi="http://sodipodi.sourceforge.net/DTD/sodipodi-0.dtd"
   xmlns="http://www.w3.org/2000/svg"
   xmlns:svg="http://www.w3.org/2000/svg">
  <defs
     id="defs1" />
  <sodipodi:namedview
     id="namedview1"
     pagecolor="#ffffff"
     bordercolor="#000000"
     borderopacity="0.25"
     inkscape:showpageshadow="2"
     inkscape:pageopacity="0.0"
     inkscape:pagecheckerboard="0"
     inkscape:deskcolor="#d1d1d1"
     inkscape:zoom="8.367838"
     inkscape:cx="41.28904"
     inkscape:cy="28.980006"
     inkscape:window-width="1920"
     inkscape:window-height="1057"
     inkscape:window-x="1912"
     inkscape:window-y="-8"
     inkscape:window-maximized="1"
     inkscape:current-layer="g1" />
  <g
     inkscape:groupmode="layer"
     inkscape:label="Image"
     id="g1">
    <path
       style="fill:#aaaaaa;stroke-width:0.112293;fill-opacity:1"
       d="M 8.8645735,62.569959 C 8.7038196,62.462288 6.9225803,60.719575 4.9062631,58.69727 L 1.2402348,55.020355 V 54.430914 53.841472 L 20.919169,34.161344 C 36.813824,18.265725 40.666246,14.468432 40.952456,14.414738 c 0.219206,-0.04112 0.497774,0.0016 0.730401,0.11197 0.538235,0.255409 7.694919,7.464546 7.791249,7.848352 C 49.678292,23.1886 50.561732,22.261617 29.73381,43.088278 10.128735,62.692162 10.05197,62.767208 9.605266,62.766471 9.3586398,62.766022 9.0253273,62.677632 8.8645735,62.569959 Z M 24.0068,45.330802 38.407578,30.932298 35.713171,28.23745 33.018767,25.542603 18.561695,39.999675 4.1046246,54.456746 6.7940614,57.147935 c 1.4791897,1.480154 2.7170048,2.666479 2.7506997,2.63628 0.033694,-0.0302 6.5416119,-6.534237 14.4620389,-14.453413 z m 19.904765,-25.290098 -2.695258,-2.695261 -3.227827,3.227825 -3.227824,3.227826 2.693663,2.695418 2.693663,2.695416 3.229422,-3.227982 3.229422,-3.227982 z m 18.135038,21.009173 c -0.185283,-0.144164 -1.398041,-1.034391 -2.695019,-1.978282 -1.296978,-0.943888 -2.459335,-1.80671 -2.583016,-1.917379 -0.242015,-0.216554 -0.18536,-0.254176 -5.026892,3.337951 -0.983141,0.729432 -1.379663,0.854374 -1.366754,0.430656 0.0037,-0.121594 0.52997,-0.928523 1.169479,-1.793175 0.639508,-0.864652 1.498971,-2.02688 1.90992,-2.582726 0.410948,-0.555848 0.827701,-1.129219 0.926117,-1.274157 0.174859,-0.257517 0.142577,-0.312562 -1.415906,-2.414289 -2.378497,-3.207576 -2.681718,-3.653166 -2.61113,-3.837116 0.113097,-0.294724 0.37474,-0.18249 1.509828,0.647648 2.84713,2.08223 4.250744,3.096917 4.465619,3.228243 0.212947,0.130148 0.43278,-0.0037 2.470434,-1.504699 3.482433,-2.565184 3.641163,-2.673671 3.814561,-2.607132 0.297526,0.114172 0.169724,0.405823 -0.659762,1.505618 -0.452333,0.599737 -1.060214,1.418886 -1.350846,1.820331 -0.290633,0.401445 -0.885726,1.22303 -1.322428,1.825743 l -0.794005,1.095842 1.078538,1.486885 c 0.593197,0.817787 1.55975,2.143292 2.147893,2.945569 0.588145,0.802278 1.054772,1.534405 1.03695,1.626951 -0.05043,0.261897 -0.334426,0.244749 -0.703581,-0.04248 z M 48.814809,15.192638 c -0.161593,-0.161592 -0.04856,-0.400279 0.626965,-1.323868 0.386006,-0.527758 1.349824,-1.844456 2.141821,-2.925996 L 53.023587,8.9763371 52.097193,7.7144388 C 51.587677,7.0203939 50.623857,5.7132585 49.955373,4.8096921 49.286888,3.9061258 48.739946,3.0834012 48.739946,2.9814152 c 0,-0.3674565 0.321864,-0.2943246 1.039019,0.2360793 0.401591,0.2970145 1.453716,1.0706081 2.338058,1.7190972 0.884341,0.6484889 1.888527,1.389825 2.231524,1.6474136 l 0.623631,0.4683432 0.348623,-0.2650923 c 0.191743,-0.1458011 0.974983,-0.7251772 1.740533,-1.2875033 3.932512,-2.88858 3.958128,-2.9044203 4.099814,-2.5351963 0.06072,0.1582285 -0.529326,1.0132296 -3.046399,4.4143853 l -1.184219,1.6001579 2.136939,2.9150112 c 1.175317,1.603254 2.136941,2.994465 2.136941,3.091576 0,0.09711 -0.07123,0.203901 -0.158281,0.237307 -0.142955,0.05486 -2.153813,-1.359963 -5.054398,-3.556226 l -1.001712,-0.758477 -0.401944,0.30953 c -1.48911,1.146736 -5.508914,4.049678 -5.607726,4.049678 -0.04988,0 -0.124368,-0.03368 -0.16554,-0.07486 z M 22.727542,13.523941 c -0.06744,-0.175742 -0.0097,-0.266977 1.285817,-2.032747 C 25.947348,8.8552532 26.79364,7.692445 26.872342,7.5629409 26.926492,7.4738289 26.523578,6.8318667 25.774899,5.814411 23.081168,2.1536249 22.668896,1.5552323 22.730274,1.3952837 c 0.135965,-0.3543191 0.03794,-0.41692168 4.653186,2.9716972 0.636984,0.467688 1.245967,0.9130109 1.353296,0.9896062 0.210054,0.1499047 0.03786,0.264589 4.242041,-2.8252998 1.62647,-1.1953838 2.074715,-1.4201922 2.144957,-1.0757619 0.01889,0.092642 -0.924636,1.4787066 -2.096733,3.0801452 l -2.131084,2.9117064 0.41056,0.5693602 c 0.382397,0.5303025 2.08463,2.8510988 3.312672,4.5164388 0.293364,0.39783 0.53339,0.798399 0.53339,0.890156 0,0.493918 -0.604969,0.165376 -2.919605,-1.585563 -0.339684,-0.256959 -1.217419,-0.908423 -1.950523,-1.447695 l -1.332915,-0.9804962 -0.519911,0.369541 c -0.28595,0.2032475 -1.176821,0.8556392 -1.979713,1.4497592 -3.646586,2.698384 -3.582697,2.658993 -3.72235,2.295063 z"
       id="path1" />
  </g>
</svg>
